<svg xmlns="http://www.w3.org/2000/svg" xmlns:xlink="http://www.w3.org/1999/xlink" width="27.541" height="27.533" viewBox="0 0 27.541 27.533">
  <defs>
    <radialGradient id="radial-gradient" cx="0.266" cy="1.077" r="0.991" gradientTransform="translate(-2.918 5.666) rotate(-90) scale(1 0.93)" gradientUnits="objectBoundingBox">
      <stop offset="0" stop-color="#fd5"/>
      <stop offset="0.1" stop-color="#fd5"/>
      <stop offset="0.5" stop-color="#ff543e"/>
      <stop offset="1" stop-color="#c837ab"/>
    </radialGradient>
    <radialGradient id="radial-gradient-2" cx="-0.168" cy="0.072" r="0.443" gradientTransform="matrix(0.196, 0.981, -4.042, 0.809, 15.634, -0.42)" gradientUnits="objectBoundingBox">
      <stop offset="0" stop-color="#3771c8"/>
      <stop offset="0.128" stop-color="#3771c8"/>
      <stop offset="1" stop-color="#60f" stop-opacity="0"/>
    </radialGradient>
  </defs>
  <g id="insta" transform="translate(-1.001 -1)">
    <path id="Path_41947" data-name="Path 41947" d="M13.771,0C8.022,0,6.341.006,6.014.033A6.832,6.832,0,0,0,3.3.715,5.5,5.5,0,0,0,1.718,1.873,5.909,5.909,0,0,0,.123,5.222,24.851,24.851,0,0,0,0,9.287c0,1.1,0,2.539,0,4.475,0,5.744.006,7.424.034,7.75a6.916,6.916,0,0,0,.657,2.66,5.8,5.8,0,0,0,3.76,3.071,9.77,9.77,0,0,0,2,.265c.341.015,3.817.025,7.295.025s6.956,0,7.288-.021a9.408,9.408,0,0,0,2.072-.271,5.766,5.766,0,0,0,3.76-3.078,6.8,6.8,0,0,0,.649-2.609c.019-.237.026-4.02.026-7.8s-.008-7.553-.027-7.79a6.727,6.727,0,0,0-.662-2.635,5.458,5.458,0,0,0-1.179-1.615A5.945,5.945,0,0,0,22.316.126,24.816,24.816,0,0,0,18.253,0Z" transform="translate(1.004 1)" fill="url(#radial-gradient)"/>
    <path id="Path_41948" data-name="Path 41948" d="M13.771,0C8.022,0,6.341.006,6.014.033A6.832,6.832,0,0,0,3.3.715,5.5,5.5,0,0,0,1.718,1.873,5.909,5.909,0,0,0,.123,5.222,24.851,24.851,0,0,0,0,9.287c0,1.1,0,2.539,0,4.475,0,5.744.006,7.424.034,7.75a6.916,6.916,0,0,0,.657,2.66,5.8,5.8,0,0,0,3.76,3.071,9.77,9.77,0,0,0,2,.265c.341.015,3.817.025,7.295.025s6.956,0,7.288-.021a9.408,9.408,0,0,0,2.072-.271,5.766,5.766,0,0,0,3.76-3.078,6.8,6.8,0,0,0,.649-2.609c.019-.237.026-4.02.026-7.8s-.008-7.553-.027-7.79a6.727,6.727,0,0,0-.662-2.635,5.458,5.458,0,0,0-1.179-1.615A5.945,5.945,0,0,0,22.316.126,24.816,24.816,0,0,0,18.253,0Z" transform="translate(1.004 1)" fill="url(#radial-gradient-2)"/>
    <path id="Path_41949" data-name="Path 41949" d="M28.168,18c-2.761,0-3.108.012-4.192.061a7.461,7.461,0,0,0-2.468.472,5.2,5.2,0,0,0-2.974,2.973,7.427,7.427,0,0,0-.472,2.468C18.013,25.059,18,25.406,18,28.167s.012,3.107.061,4.191a7.472,7.472,0,0,0,.472,2.468A5.2,5.2,0,0,0,21.507,37.8a7.467,7.467,0,0,0,2.468.472c1.084.049,1.431.061,4.192.061s3.107-.012,4.191-.061a7.472,7.472,0,0,0,2.469-.472A5.209,5.209,0,0,0,37.8,34.826a7.536,7.536,0,0,0,.472-2.468c.049-1.084.061-1.43.061-4.191s-.013-3.108-.061-4.192a7.532,7.532,0,0,0-.472-2.468,5.2,5.2,0,0,0-2.974-2.973,7.484,7.484,0,0,0-2.47-.472c-1.084-.049-1.43-.061-4.192-.061Zm-.912,1.832h.912c2.715,0,3.036.01,4.108.058a5.629,5.629,0,0,1,1.888.35,3.369,3.369,0,0,1,1.929,1.93,5.618,5.618,0,0,1,.35,1.887c.049,1.072.059,1.394.059,4.107s-.011,3.035-.059,4.107a5.623,5.623,0,0,1-.35,1.887,3.371,3.371,0,0,1-1.929,1.928,5.608,5.608,0,0,1-1.888.35c-1.072.049-1.394.059-4.108.059s-3.037-.011-4.108-.059a5.64,5.64,0,0,1-1.888-.351,3.368,3.368,0,0,1-1.93-1.929,5.618,5.618,0,0,1-.35-1.887c-.049-1.072-.058-1.394-.058-4.109s.01-3.035.058-4.107a5.629,5.629,0,0,1,.35-1.888,3.369,3.369,0,0,1,1.93-1.93,5.616,5.616,0,0,1,1.888-.351c.938-.042,1.3-.055,3.2-.057Zm6.339,1.688a1.22,1.22,0,1,0,1.22,1.22,1.22,1.22,0,0,0-1.22-1.22Zm-5.427,1.425a5.221,5.221,0,1,0,5.22,5.221,5.221,5.221,0,0,0-5.22-5.221Zm0,1.832a3.389,3.389,0,1,1-3.389,3.389A3.389,3.389,0,0,1,28.168,24.778Z" transform="translate(-13.399 -13.399)" fill="#fff"/>
  </g>
</svg>
