<svg id="loginicon" xmlns="http://www.w3.org/2000/svg" width="536.65" height="504.074" viewBox="0 0 536.65 504.074">
  <circle id="Ellipse_87" data-name="Ellipse 87" cx="178.217" cy="178.217" r="178.217" transform="translate(32.577 252.037) rotate(-45)" fill="#c6e2f4"/>
  <g id="Group_4190" data-name="Group 4190" transform="translate(188.901 302.184)">
    <path id="Path_41882" data-name="Path 41882" d="M217.991,388.247S217.03,306.706,272.1,257.8c24.979-22.185,82.719,6.417,27.31,44.064C276.508,317.424,241.61,331.273,217.991,388.247Z" transform="translate(-216.624 -250.025)" fill="#3285ff"/>
    <path id="Path_41883" data-name="Path 41883" d="M292.456,262.334s-79.379,52.218-75.016,144.975" transform="translate(-217.266 -239.095)" fill="none" stroke="#3081f8" stroke-miterlimit="10" stroke-width="1.366"/>
  </g>
  <ellipse id="Ellipse_88" data-name="Ellipse 88" cx="61.586" cy="8.585" rx="61.586" ry="8.585" transform="translate(219.925 460.146)" opacity="0.1" style="mix-blend-mode: overlay;isolation: isolate"/>
  <g id="Group_4191" data-name="Group 4191" transform="translate(0 301.342)">
    <path id="Path_41884" data-name="Path 41884" d="M289.119,385.815s-2.813-89.438-115.878-133.632c-38.97-15.232-95.766,40.333-15.033,63.166C191.575,324.785,238.523,327.447,289.119,385.815Z" transform="translate(-117.208 -249.578)" fill="#2d76e3"/>
    <path id="Path_41885" data-name="Path 41885" d="M137.716,264.822S252.7,295.491,284.19,407.45" transform="translate(-98.998 -236.043)" fill="none" stroke="#296ed3" stroke-miterlimit="10" stroke-width="1.711"/>
  </g>
  <g id="Group_4192" data-name="Group 4192" transform="translate(73.12 246.438)">
    <path id="Path_41886" data-name="Path 41886" d="M173.416,225.411C180.749,230.307,183,239.8,183,239.8s-9.636,1.565-16.97-3.328-11.624-11.337-9.585-14.393S166.083,220.518,173.416,225.411Z" transform="translate(-155.938 -220.497)" fill="#3087ff"/>
    <path id="Path_41887" data-name="Path 41887" d="M180.332,235.058c6.181,2.494,9.309,9.179,9.309,9.179s-6.891,2.641-13.072.147-10.348-6.6-9.309-9.179S174.152,232.564,180.332,235.058Z" transform="translate(-146.027 -209.191)" fill="#3087ff"/>
    <path id="Path_41888" data-name="Path 41888" d="M182.8,234.446c2.558,6.155-.011,13.074-.011,13.074s-6.715-3.06-9.273-9.215-2.554-12.007.011-13.072S180.243,228.291,182.8,234.446Z" transform="translate(-142.032 -216.441)" fill="#3087ff"/>
    <path id="Path_41889" data-name="Path 41889" d="M186.938,241.9c7.831,1.82,12.806,9.2,12.806,9.2s-7.722,4.433-15.553,2.613-13.563-5.941-12.806-9.205S179.107,240.077,186.938,241.9Z" transform="translate(-142.282 -202.258)" fill="#3087ff"/>
    <path id="Path_41890" data-name="Path 41890" d="M192.954,243c2.248,7.72-1.752,15.672-1.752,15.672s-7.646-4.561-9.895-12.279-1.463-14.735,1.752-15.672S190.705,235.278,192.954,243Z" transform="translate(-134.552 -211.514)" fill="#3087ff"/>
    <path id="Path_41891" data-name="Path 41891" d="M190.381,250.066c8.041-.026,14.578,6.015,14.578,6.015s-6.5,6.089-14.537,6.115-14.565-2.666-14.577-6.015S182.342,250.094,190.381,250.066Z" transform="translate(-138.262 -194.242)" fill="#3087ff"/>
    <path id="Path_41892" data-name="Path 41892" d="M195.93,259.541c8.571-.4,15.819,5.747,15.819,5.747s-6.647,6.787-15.218,7.185-15.653-2.175-15.819-5.745S187.359,259.939,195.93,259.541Z" transform="translate(-133.945 -185.845)" fill="#3087ff"/>
    <path id="Path_41893" data-name="Path 41893" d="M200.313,269.091c8.486-1.269,16.321,4.106,16.321,4.106s-5.922,7.431-14.409,8.7-15.792-.57-16.321-4.106S191.827,270.36,200.313,269.091Z" transform="translate(-129.358 -177.521)" fill="#3087ff"/>
    <path id="Path_41894" data-name="Path 41894" d="M206.256,279.782c8.579.142,15.424,6.73,15.424,6.73s-7.063,6.357-15.641,6.213-15.485-3.159-15.424-6.732S197.677,279.636,206.256,279.782Z" transform="translate(-125.15 -167.862)" fill="#3087ff"/>
    <path id="Path_41895" data-name="Path 41895" d="M191.647,249.822c-3.168,7.387-.164,15.768-.164,15.768s8.143-3.6,11.312-10.986,3.243-14.448.166-15.768S194.817,242.434,191.647,249.822Z" transform="translate(-125.521 -204.404)" fill="#3087ff"/>
    <path id="Path_41896" data-name="Path 41896" d="M200.541,258.48c-4.856,7.072-3.457,16.47-3.457,16.47s9.273-2.069,14.129-9.141,6.406-14.448,3.459-16.472S205.4,251.408,200.541,258.48Z" transform="translate(-119.571 -195.348)" fill="#3087ff"/>
    <path id="Path_41897" data-name="Path 41897" d="M206.777,266.907c-5.55,6.542-5.116,16.034-5.116,16.034s9.436-1.116,14.988-7.657,7.842-13.721,5.116-16.034S212.329,260.365,206.777,266.907Z" transform="translate(-115.348 -186.729)" fill="#3087ff"/>
    <path id="Path_41898" data-name="Path 41898" d="M209.412,279.58c-4.4,7.367-2.411,16.657-2.411,16.657s9.124-2.651,13.525-10.015,5.481-14.822,2.411-16.657S213.813,272.216,209.412,279.58Z" transform="translate(-110.998 -177.293)" fill="#3087ff"/>
    <path id="Path_41899" data-name="Path 41899" d="M211.335,291.513c8.365,1.911,13.7,9.77,13.7,9.77s-8.22,4.761-16.585,2.853-14.5-6.283-13.706-9.768S202.969,289.6,211.335,291.513Z" transform="translate(-121.541 -158.227)" fill="#3087ff"/>
    <path id="Path_41900" data-name="Path 41900" d="M216.25,291.68c-5.826,6.3-5.8,15.8-5.8,15.8s9.475-.712,15.3-7.012,8.418-13.374,5.794-15.8S222.074,285.38,216.25,291.68Z" transform="translate(-107.533 -164.247)" fill="#3087ff"/>
    <path id="Path_41901" data-name="Path 41901" d="M214.343,304.148c8.171,2.615,12.825,10.9,12.825,10.9s-8.6,4.046-16.77,1.433-13.914-7.5-12.825-10.9S206.17,301.535,214.343,304.148Z" transform="translate(-119.089 -147.649)" fill="#3087ff"/>
    <path id="Path_41902" data-name="Path 41902" d="M219.99,304.319c-6.34,5.781-7.117,15.251-7.117,15.251s9.5.1,15.84-5.685,9.528-12.607,7.119-15.25S226.33,298.539,219.99,304.319Z" transform="translate(-105.385 -152.044)" fill="#3087ff"/>
    <path id="Path_41903" data-name="Path 41903" d="M165.615,227.812s42.1,22.8,70.187,86.495,22.727,123.932,22.727,123.932" transform="translate(-147.346 -214.001)" fill="none" stroke="#3087ff" stroke-miterlimit="10" stroke-width="1.283"/>
  </g>
  <g id="Group_4193" data-name="Group 4193" transform="translate(373.47 330.106)">
    <path id="Path_41904" data-name="Path 41904" d="M366.513,267.183c-5.454,2.768-7.79,9.126-7.79,9.126s6.511,1.873,11.966-.895,8.943-6.853,7.79-9.126S371.969,264.417,366.513,267.183Z" transform="translate(-276.234 -264.815)" fill="#78b0ff"/>
    <path id="Path_41905" data-name="Path 41905" d="M359.165,273.285c-4.463,1.208-7.168,5.556-7.168,5.556s4.529,2.388,8.992,1.178,7.674-3.7,7.17-5.556S363.628,272.077,359.165,273.285Z" transform="translate(-282.206 -257.87)" fill="#78b0ff"/>
    <path id="Path_41906" data-name="Path 41906" d="M354.432,272.549c-2.271,4.029-1.07,9.007-1.07,9.007s4.878-1.554,7.15-5.583,2.747-8.061,1.069-9.007S356.7,268.52,354.432,272.549Z" transform="translate(-281.276 -263.082)" fill="#78b0ff"/>
    <path id="Path_41907" data-name="Path 41907" d="M355.921,277.622c-5.545.608-9.579,5.284-9.579,5.284s4.954,3.691,10.5,3.081,9.832-2.975,9.579-5.284S361.466,277.012,355.921,277.622Z" transform="translate(-287.227 -253.571)" fill="#78b0ff"/>
    <path id="Path_41908" data-name="Path 41908" d="M347.223,277.641c-2.184,5.131-.085,10.94-.085,10.94s5.645-2.511,7.829-7.644,2.222-10.03.083-10.94S349.408,272.51,347.223,277.641Z" transform="translate(-287.326 -260.343)" fill="#78b0ff"/>
    <path id="Path_41909" data-name="Path 41909" d="M352.942,283.174c-5.535-.682-10.538,2.943-10.538,2.943s3.974,4.729,9.509,5.411,10.255-.636,10.538-2.943S358.478,283.856,352.942,283.174Z" transform="translate(-290.723 -248.589)" fill="#78b0ff"/>
    <path id="Path_41910" data-name="Path 41910" d="M348.954,289.3c-5.871-.982-11.371,2.654-11.371,2.654s4.019,5.224,9.891,6.2,10.963-.208,11.371-2.654S354.825,290.284,348.954,289.3Z" transform="translate(-295.004 -243.219)" fill="#78b0ff"/>
    <path id="Path_41911" data-name="Path 41911" d="M345,295.567c-5.743-1.573-11.582,1.484-11.582,1.484s3.466,5.607,9.209,7.18,10.925.908,11.582-1.484S350.741,297.141,345,295.567Z" transform="translate(-298.702 -237.909)" fill="#78b0ff"/>
    <path id="Path_41912" data-name="Path 41912" d="M340.219,302.368c-5.922-.608-11.182,3.366-11.182,3.366s4.342,4.96,10.265,5.569,10.927-.9,11.18-3.368S346.141,302.976,340.219,302.368Z" transform="translate(-302.592 -231.527)" fill="#78b0ff"/>
    <path id="Path_41913" data-name="Path 41913" d="M347.552,282.758c1.574,5.35-1.186,10.876-1.186,10.876s-5.313-3.149-6.889-8.5-1.042-10.221,1.187-10.878S345.978,277.407,347.552,282.758Z" transform="translate(-294.125 -256.496)" fill="#78b0ff"/>
    <path id="Path_41914" data-name="Path 41914" d="M342.016,288.158c2.764,5.273,1.025,11.631,1.025,11.631s-6.219-2.19-8.981-7.463-3.223-10.48-1.025-11.631S339.254,282.885,342.016,288.158Z" transform="translate(-300.276 -250.916)" fill="#78b0ff"/>
    <path id="Path_41915" data-name="Path 41915" d="M337.645,293.526c3.285,4.963,2.2,11.467,2.2,11.467s-6.408-1.546-9.693-6.511-4.272-10.1-2.2-11.467S334.36,288.561,337.645,293.526Z" transform="translate(-304.515 -245.403)" fill="#78b0ff"/>
    <path id="Path_41916" data-name="Path 41916" d="M333.819,301.917c2.426,5.437.289,11.673.289,11.673s-6.066-2.577-8.492-8.014-2.554-10.663-.289-11.673S331.395,296.48,333.819,301.917Z" transform="translate(-307.323 -239.138)" fill="#78b0ff"/>
    <path id="Path_41917" data-name="Path 41917" d="M335.677,309.822c-5.92.627-10.248,5.6-10.248,5.6s5.273,3.957,11.192,3.332,10.508-3.134,10.248-5.6S341.6,309.2,335.677,309.822Z" transform="translate(-305.796 -224.978)" fill="#78b0ff"/>
    <path id="Path_41918" data-name="Path 41918" d="M329.351,309.842c3.493,4.82,2.688,11.363,2.688,11.363s-6.468-1.271-9.962-6.09-4.7-9.908-2.688-11.363S325.856,305.022,329.351,309.842Z" transform="translate(-312.023 -230.59)" fill="#78b0ff"/>
    <path id="Path_41919" data-name="Path 41919" d="M332.428,318.2c-5.845,1.127-9.732,6.451-9.732,6.451s5.588,3.5,11.433,2.367,10.2-4.016,9.734-6.451S338.275,317.073,332.428,318.2Z" transform="translate(-308.222 -217.813)" fill="#78b0ff"/>
    <path id="Path_41920" data-name="Path 41920" d="M326.252,318.3c3.891,4.5,3.647,11.093,3.647,11.093s-6.553-.717-10.444-5.222-5.524-9.472-3.647-11.093S322.361,313.8,326.252,318.3Z" transform="translate(-315.03 -222.417)" fill="#78b0ff"/>
    <path id="Path_41921" data-name="Path 41921" d="M400.432,269.281s-30.882,12.237-55.48,53.8-25.87,83.5-25.87,83.5" transform="translate(-311.431 -260.849)" fill="none" stroke="#78b0ff" stroke-miterlimit="10" stroke-width="0.89"/>
  </g>
  <g id="Group_4194" data-name="Group 4194" transform="translate(360.659 246.529)">
    <path id="Path_41922" data-name="Path 41922" d="M318.565,416.374s-31.645-97.1,15.883-176.155c21.56-35.859,101.271-23.269,49.125,42.453C362.021,309.836,325.488,339.442,318.565,416.374Z" transform="translate(-308.244 -220.545)" fill="#2d76e3"/>
    <path id="Path_41923" data-name="Path 41923" d="M359.824,236.85s-75.35,92.1-35.446,201.34" transform="translate(-304.268 -206.067)" fill="none" stroke="#296ed3" stroke-miterlimit="10" stroke-width="1.711"/>
  </g>
  <g id="Group_4195" data-name="Group 4195" transform="translate(380.665 393.228)">
    <path id="Path_41924" data-name="Path 41924" d="M322.163,364.405s14.635-46.911,55.3-64.684c18.449-8.061,46.214,19.085,7.446,30.341C368.891,334.714,346.311,336.153,322.163,364.405Z" transform="translate(-315.891 -298.249)" fill="#2d76e3"/>
    <path id="Path_41925" data-name="Path 41925" d="M388.837,305.669s-55.22,15.141-70,69.115" transform="translate(-318.841 -291.661)" fill="none" stroke="#296ed3" stroke-miterlimit="10" stroke-width="0.823"/>
  </g>
  <g id="Group_4197" data-name="Group 4197" transform="translate(147.214 62.454)">
    <path id="Path_41926" data-name="Path 41926" d="M303.228,163.022l-.215-11.18a6.5,6.5,0,0,0-2.169-4.7c-2.171-1.95-4.848-5.424-4.223-6.238,1.157-1.507,4.946,4,6.476,2.871.455-.336-2.15-15.392-.6-15.3,1.2.076,1.675,8.552,2.213,8.488s.4-14.033,1.5-13.923c1.067.106,1.45,12.823,2.186,12.358,1.078-.68-.032-11.175,1.752-11.68,1.2-.34,1.016,13.359,1.684,13.6.835.3,1.2-8.858,2.23-8.5,1.429.5-.725,16.081-.725,16.081l-2.715,19.783Z" transform="translate(-105.202 -123.043)" fill="#ffb49b"/>
    <path id="Path_41927" data-name="Path 41927" d="M229.364,183.321l-7.531-8.265a6.494,6.494,0,0,1-1.656-4.9c.234-2.909-.211-7.272-1.223-7.435-1.877-.3-.84,6.308-2.728,6.538-.563.07-9.022-12.653-10.08-11.522-.823.884,4.663,7.361,4.229,7.684s-9.938-9.915-10.665-9.077c-.7.812,7.765,10.308,6.91,10.478-1.25.247-7.659-8.135-9.3-7.276-1.1.576,8.448,10.4,8.127,11.029-.4.791-6.961-5.609-7.461-4.635-.693,1.346,11.584,11.176,11.584,11.176l15.575,12.5Z" transform="translate(-193.371 -93.52)" fill="#ffb49b"/>
    <g id="Group_4196" data-name="Group 4196" transform="translate(0 34.408)">
      <path id="Path_41928" data-name="Path 41928" d="M310.41,167.916a33.569,33.569,0,0,0-32.614-25.7,32.743,32.743,0,0,0-4.012.247,72.876,72.876,0,0,1-18.69.17c-2.745-.37-5.811-.776-8.969-1.187a20.67,20.67,0,0,0-22.372,26.859c.059.179.119.357.179.534a78.569,78.569,0,0,1,4.057,24.377c.009.693.038,1.391.091,2.094a33.58,33.58,0,0,0,34.964,31.02,61.007,61.007,0,0,1,26.263,4.293c3.572,1.49,7.244,2.607,10.191,2.607a33.568,33.568,0,0,0,10.912-65.318Z" transform="translate(-170.751 -141.268)" fill="#41378c"/>
      <path id="Path_41929" data-name="Path 41929" d="M343.134,163.313s-5.211,51.972-13.155,67.111c-6.277,11.96-37.732,38.67-37.732,38.67a10.694,10.694,0,0,1-15.821-.563h0a10.691,10.691,0,0,1-1.05-12.328s28.685-30.935,32.944-44c4.038-12.387-.646-52.112-.646-52.112a17.9,17.9,0,0,1,21.788-17.69h0A17.9,17.9,0,0,1,343.134,163.313Z" transform="translate(-125.294 -140.649)" fill="#fff"/>
      <path id="Path_41930" data-name="Path 41930" d="M295.239,307.94c-5.847-1.943-6.944,2.152-8.905,9.432s-2.32,12.789-.444,13.295c1.75.472,4.248-2.1,8.443-8.365C299.37,314.778,299.049,309.205,295.239,307.94Z" transform="translate(-115.742 6.294)" fill="#41378c"/>
      <path id="Path_41931" data-name="Path 41931" d="M295.969,303.839l-5.679,7.867c-1.816,2.464-1.746,4.252-.623,5.358h0a2.987,2.987,0,0,0,4.106.083l9.43-7.893Z" transform="translate(-112.004 3.08)" fill="#ffb49b"/>
      <path id="Path_41932" data-name="Path 41932" d="M290.708,232.564c-28.577,11.254-20.675,49.965-7.212,57.953,20.019,11.879,59.954,6.891,59.986,9.987.138,13.044-34.69,67.795-34.69,67.795a1.441,1.441,0,0,0,.16,1.631,28.105,28.105,0,0,0,7.036,6.16,1.2,1.2,0,0,0,1.388-.306c19.513-18.173,59.124-63.062,63.787-82.407C388.945,261.1,296.051,230.459,290.708,232.564Z" transform="translate(-127.57 -60.297)" fill="#9b14aa"/>
      <path id="Path_41933" data-name="Path 41933" d="M218.387,298.519c-2.511-5.628-6.274-3.674-12.972-.211s-11.007,6.914-10.114,8.641c.833,1.61,4.416,1.72,11.871.589C216.126,306.181,220.022,302.184,218.387,298.519Z" transform="translate(-195.185 -4.791)" fill="#41378c"/>
      <path id="Path_41934" data-name="Path 41934" d="M218.524,295.985l-9.64,1.116c-3.043.321-4.316,1.578-4.374,3.153h0a2.988,2.988,0,0,0,2.709,3.089l12.186,1.635Z" transform="translate(-186.907 -3.894)" fill="#ffb49b"/>
      <path id="Path_41935" data-name="Path 41935" d="M347.206,236.359c-5.854-6.043-33.633-1.244-33.633-1.244-28.757,10.788-27.309,35.848-24.122,51.176,4.737,22.791-2.558,41.813-4.82,43.926-9.536,8.9-73.447,20.127-73.447,20.127a1.438,1.438,0,0,0-1.1,1.218,28.144,28.144,0,0,0,.2,9.351c.087.5.655.776,1.163.817,26.578,2.145,80.1,6.823,97.158-3.419C347.686,334.846,369.451,259.331,347.206,236.359Z" transform="translate(-182.218 -59.545)" fill="#be1ec8"/>
      <path id="Path_41936" data-name="Path 41936" d="M305.764,285.254a22.884,22.884,0,0,0,19.064-16.066c3.91-12.981,9.255-34.162,6.819-46.294-2.271-11.32-11.025-32.323-32.991-32.321-14.65,0-44.217,4.35-42.282,26.831,1.206,14.016,3.606,40.381,14.618,58.027a16.593,16.593,0,0,0,8.92,7.017A61.047,61.047,0,0,0,305.764,285.254Z" transform="translate(-140.935 -97.49)" fill="#fff"/>
      <path id="Rectangle_911" data-name="Rectangle 911" d="M0,0H15.371a0,0,0,0,1,0,0V28.977A4.071,4.071,0,0,1,11.3,33.048H4.071A4.071,4.071,0,0,1,0,28.977V0A0,0,0,0,1,0,0Z" transform="translate(147.45 72.226)" fill="#ffa587"/>
      <path id="Path_41937" data-name="Path 41937" d="M287.122,199.265h0a9.649,9.649,0,0,0,1.537-.132V179.525H273.287v2.864C273.287,190.027,279.481,199.265,287.122,199.265Z" transform="translate(-125.838 -107.3)" fill="#f5876e"/>
      <path id="Path_41938" data-name="Path 41938" d="M294.211,203h0c-6.285,2.4-17.62-1.971-20.023-8.254,0,0-5.243-9.511-4.961-12.972,1.3-15.981,16.544-12.891,22.105-10.408,3.17,1.416,4.722,11.322,5.613,14.677C298.67,192.541,296.96,201.945,294.211,203Z" transform="translate(-129.453 -116.336)" fill="#ffb49b"/>
      <path id="Path_41939" data-name="Path 41939" d="M268.331,183.953a5.414,5.414,0,0,0,6.97,3.162l-3.889-10.17A5.414,5.414,0,0,0,268.331,183.953Z" transform="translate(-130.562 -109.591)" fill="#ffa587"/>
      <path id="Path_41940" data-name="Path 41940" d="M290.3,170.415l-19.179,7.335,1.614,4.219A4.016,4.016,0,0,0,271.5,188.4a5.943,5.943,0,0,0,1.055-1.2,5.36,5.36,0,0,1,2.594-2.012,10.5,10.5,0,0,0,5.282-4.527,11.609,11.609,0,0,1,7.518-5.607,12.984,12.984,0,0,0,2-.589,14.473,14.473,0,0,0,1.6-.751Z" transform="translate(-128.419 -115.389)" fill="#ffa587"/>
      <path id="Path_41941" data-name="Path 41941" d="M284.632,157.353a15.022,15.022,0,0,0-8.443,8.979,19.036,19.036,0,0,1-8.216,9.66l-.13.083a12.161,12.161,0,0,0-5.36,12.341,12.739,12.739,0,0,0,.481,1.82,13.31,13.31,0,0,1,.78,6,5.886,5.886,0,0,0,.338,2.849,6.54,6.54,0,0,0,8.554,3.491,6.929,6.929,0,0,0,3.351-2.688,6.1,6.1,0,0,1,2.956-2.3,11.974,11.974,0,0,0,6.021-5.158,13.226,13.226,0,0,1,8.569-6.391,15.086,15.086,0,0,0,10.818-20.557A15.557,15.557,0,0,0,284.632,157.353Z" transform="translate(-135.606 -127.928)" fill="#41378c"/>
      <path id="Path_41942" data-name="Path 41942" d="M211.678,193.537s34.226,31.783,49.741,38.415c11.222,4.8,54.806,9.4,54.806,9.4a10.042,10.042,0,0,0,12.249-7.9h0a9.372,9.372,0,0,0-4.744-10.012s-38.7-6.255-49.433-12.409c-10.857-6.226-36.052-36.7-36.052-36.7-9.77-9.4-17.448-10.629-25.219-3.376h0C206.494,177.048,203.851,188.678,211.678,193.537Z" transform="translate(-184.814 -119.065)" fill="#fff"/>
    </g>
  </g>
</svg>
