<?xml version="1.0" standalone="no"?>
<!DOCTYPE svg PUBLIC "-//W3C//DTD SVG 1.1//EN" "http://www.w3.org/Graphics/SVG/1.1/DTD/svg11.dtd" >
<svg xmlns="http://www.w3.org/2000/svg" xmlns:xlink="http://www.w3.org/1999/xlink" version="1.1">
<metadata></metadata>
<defs>
<font id="gill_sans_mtmedium_italic" horiz-adv-x="1067" >
<font-face units-per-em="2048" ascent="1638" descent="-410" />
<missing-glyph horiz-adv-x="569" />
<glyph horiz-adv-x="0" />
<glyph unicode="&#xd;" horiz-adv-x="2048" />
<glyph unicode=" "  horiz-adv-x="569" />
<glyph unicode="&#x09;" horiz-adv-x="569" />
<glyph unicode="&#xa0;" horiz-adv-x="569" />
<glyph unicode="!" horiz-adv-x="512" d="M80 82q0 45 31.5 78t78.5 33q49 0 82 -34t33 -75q0 -43 -32.5 -78t-82.5 -35q-45 0 -77.5 33t-32.5 78zM190 338q20 156 60 768q16 309 135 309q33 0 57.5 -27.5t24.5 -87.5q0 -94 -64 -350q-70 -272 -92 -387q-18 -82 -45 -225h-76z" />
<glyph unicode="&#x22;" horiz-adv-x="727" d="M180 879l13 274l53 244h205l-54 -244l-104 -274h-113zM514 879l12 274l52 244h204l-51 -244l-106 -274h-111z" />
<glyph unicode="#" horiz-adv-x="1196" d="M117 205v145h217l69 348h-286v142h317l84 399h148l-84 -399h397l84 399h145l-84 -399h189v-142h-217l-72 -348h289v-145h-318l-84 -395h-145l82 395h-399l-82 -395h-146l82 395h-186zM479 350h400l71 348h-399z" />
<glyph unicode="$" horiz-adv-x="1024" d="M82 92l29 201q143 -92 292 -131l62 438q-152 88 -229.5 170t-77.5 207q0 141 114.5 244.5t296.5 111.5l13 82h151l-12 -82q164 -22 268 -96l-26 -184q-129 84 -267 108l-61 -438q311 -164 311 -379q0 -172 -149 -274q-96 -70 -269 -88l-28 -207h-154l31 207 q-182 31 -295 110zM344 995q0 -96 152 -186l49 358q-68 -10 -113 -34.5t-61.5 -55t-21.5 -49t-5 -33.5zM553 150q94 8 151.5 59t57.5 119q0 108 -156 192z" />
<glyph unicode="%" horiz-adv-x="1449" d="M117 1100q0 131 91 222t220 91t220 -92t91 -221q0 -127 -91 -219.5t-220 -92.5t-220 92.5t-91 219.5zM217 -18l920 1435h153l-919 -1435h-154zM264 1100q0 -66 48 -114t114 -48q68 0 115 48t47 114q0 68 -48 115t-114 47t-114 -47.5t-48 -114.5zM774 297q0 129 92 220 t221 91q127 0 219.5 -91t92.5 -220t-92.5 -220t-219.5 -91q-129 0 -221 91t-92 220zM926 297q0 -68 47 -115t112 -47q68 0 115 47t47 115t-47 114t-115 46q-66 0 -112.5 -46t-46.5 -114z" />
<glyph unicode="&#x26;" horiz-adv-x="1409" d="M125 362q0 147 98.5 258t227.5 166q-78 176 -78 295q0 133 91 233.5t228 100.5q133 0 205 -89t72 -196q0 -78 -30 -145t-85 -119.5t-90 -78t-90 -58.5q98 -168 280 -377q137 137 224 350h180q-127 -307 -285 -456q117 -117 254 -117q25 0 43 6l-67 -143q-14 -10 -39 -10 q-160 0 -310 153q-201 -154 -430 -153q-117 0 -200.5 42t-123.5 107.5t-57.5 122.5t-17.5 108zM313 362q0 -104 78 -166.5t166 -62.5q121 0 279 109q-188 209 -306 401q-217 -121 -217 -281zM539 1077q0 -88 57 -211q37 18 75 46t80 86.5t42 121.5q0 57 -32 98.5t-87 41.5 q-53 0 -94 -49.5t-41 -133.5z" />
<glyph unicode="'" horiz-adv-x="391" d="M178 879l12 274l54 244h205l-54 -244l-104 -274h-113z" />
<glyph unicode="(" horiz-adv-x="598" d="M111 315q0 387 239 772q33 53 106.5 160t131.5 168h96q-143 -184 -254 -444q-82 -193 -120 -429.5t-38 -389.5q0 -347 129 -623h-86q-23 39 -60.5 121t-90.5 280.5t-53 384.5z" />
<glyph unicode=")" horiz-adv-x="598" d="M-115 -471q147 186 254 444q82 195 120 431.5t38 388.5q0 348 -127 622h84q20 -37 44 -89t66 -162.5t69.5 -253t27.5 -281.5q0 -385 -240 -774q-143 -225 -239 -326h-97z" />
<glyph unicode="*" horiz-adv-x="917" d="M135 827q0 27 22.5 49.5t44 33t56.5 22.5l203 72q-4 8 -4 24q0 12 4 23l-232 86q-90 31 -90 86q0 31 21.5 53t48.5 22q31 0 90 -53l174 -164q18 18 39 21l-39 207q-12 63 -12 92q0 39 16 61q18 25 53 25q68 0 68 -80q0 -27 -14 -98l-39 -207q27 -1 39 -21l174 164 q51 51 94 51q27 0 45 -20.5t18 -50.5q0 -37 -21.5 -57.5t-76.5 -37.5l-219 -79q4 -16 4 -25q0 -10 -4 -22l207 -72q113 -43 113 -105q0 -20 -18.5 -44.5t-49.5 -24.5q-45 0 -115 69l-151 148q-16 -20 -39 -21l39 -211q10 -51 10 -94q0 -86 -72 -86q-33 0 -49 26.5t-16 61.5 q0 37 6 58q8 25 10 34l39 211q-18 0 -39 21l-160 -148q-74 -68 -112 -67q-33 0 -49.5 23.5t-16.5 43.5z" />
<glyph unicode="+" horiz-adv-x="1196" d="M145 614v168h400v400h168v-400h401v-168h-401v-399h-168v399h-400z" />
<glyph unicode="," horiz-adv-x="405" d="M-49 -295l12 90q135 43 135 176q-80 35 -80 107q0 55 38 87t87 32q59 0 96 -46.5t37 -113.5q0 -100 -78.5 -197.5t-246.5 -134.5z" />
<glyph unicode="-" horiz-adv-x="512" d="M0 369l25 174h487l-25 -174h-487z" />
<glyph unicode="." horiz-adv-x="405" d="M18 96q0 55 36 91t85 36q47 0 85 -35.5t38 -89t-37 -90.5t-86 -37t-85 37t-36 88z" />
<glyph unicode="/" horiz-adv-x="575" d="M-61 -18l604 1433h151l-602 -1433h-153z" />
<glyph unicode="0" d="M104 469q0 115 18.5 236.5t61.5 250.5t105.5 229.5t162 165t218.5 64.5q203 0 299 -186q57 -119 57 -309q0 -135 -29.5 -287t-92 -303.5t-177.5 -249.5t-264 -98q-193 0 -281 149q-78 127 -78 338zM293 479q0 -334 180 -334q106 0 194.5 143.5t129.5 311.5t41 291 q0 47 -1 74.5t-9.5 88t-25 96.5t-52 66.5t-86.5 30.5q-106 0 -195.5 -136t-132.5 -310t-43 -322z" />
<glyph unicode="1" d="M360 0l222 1397h182l-219 -1397h-185z" />
<glyph unicode="2" d="M35 0q39 39 214 261t261 345q70 98 108.5 158.5t82.5 154t44 152.5q0 78 -55 122t-143 44q-141 0 -305 -117l28 199q160 96 314 96q156 0 248 -94t92 -227q0 -117 -52.5 -228.5t-160.5 -265.5q-117 -164 -336 -432h532l-24 -168h-848z" />
<glyph unicode="3" d="M49 59l25 166q166 -78 307 -78q156 0 228.5 80t72.5 185q0 123 -83 178t-175 49l22 162q113 14 164 41q147 74 148 213q0 102 -71 147t-146 45q-145 0 -277 -86l27 193q139 61 280 61q160 0 271.5 -91t111.5 -261q0 -244 -272 -344q92 -39 140 -118t48 -183 q0 -170 -122.5 -303t-354.5 -133q-168 -1 -344 77z" />
<glyph unicode="4" d="M80 430v80l741 905h111l-129 -835h203l-25 -150h-205l-67 -430h-179l74 430h-524zM328 580h299l69 440z" />
<glyph unicode="5" d="M31 86l63 162q123 -96 275 -96q143 0 235 88t92 223q0 121 -80.5 184.5t-203.5 63.5q-68 0 -129 -17l125 703h569l-31 -172h-401l-56 -351q203 -10 301.5 -126.5t98.5 -274.5q0 -84 -29 -167t-88 -157.5t-164.5 -120.5t-240.5 -46q-199 0 -336 104z" />
<glyph unicode="6" d="M111 389q0 102 42 215t86 184.5t132 202.5l272 406h205l-402 -590q84 47 187 47q152 0 241 -97.5t89 -240.5q0 -205 -139.5 -369.5t-342.5 -164.5q-172 0 -271 116.5t-99 290.5zM293 381q0 -88 52 -155.5t151 -67.5q125 0 205.5 103.5t80.5 230.5q0 80 -49 139t-149 59 q-129 0 -210 -95t-81 -214z" />
<glyph unicode="7" d="M238 -18l571 1241h-561l24 174h809v-13l-653 -1402h-190z" />
<glyph unicode="8" d="M82 362q0 186 125 300q68 59 174 90q-158 100 -158 268q0 162 118 278.5t300 116.5q164 0 265.5 -100.5t101.5 -245.5q0 -59 -16.5 -116.5t-74 -124t-147.5 -99.5q186 -74 186 -289q0 -180 -130 -319t-351 -139q-180 0 -286.5 110.5t-106.5 269.5zM266 362 q0 -106 72 -159t156 -53q111 0 194.5 80.5t83.5 201.5q0 106 -64.5 161.5t-158.5 55.5q-125 0 -204 -86t-79 -201zM401 1010q0 -86 55.5 -138.5t141.5 -52.5q111 0 170 78t59 158q0 82 -52 136t-140 54q-100 0 -167 -71.5t-67 -163.5z" />
<glyph unicode="9" d="M160 881q0 205 139 369.5t342 164.5q172 0 271.5 -116.5t99.5 -290.5q0 -102 -43 -217t-85 -182.5t-132 -202.5l-273 -406h-205l402 590q-84 -47 -187 -47q-152 0 -240.5 97t-88.5 241zM340 905q0 -80 49 -139t150 -59q129 0 209.5 95t80.5 214q0 88 -52 155.5t-150 67.5 q-125 0 -206 -103.5t-81 -230.5z" />
<glyph unicode=":" horiz-adv-x="405" d="M37 84q0 47 31.5 79t76.5 32q49 0 82 -33t33 -80q0 -45 -32.5 -78t-82.5 -33q-47 0 -77.5 33t-30.5 80zM143 833.5q0 47.5 33 81t80 33.5q49 0 81 -32.5t32 -80t-32 -83t-79 -35.5q-45 0 -80 34.5t-35 82z" />
<glyph unicode=";" horiz-adv-x="405" d="M-20 -295l12 90q135 45 135 176q-82 35 -82 107q0 55 39 87t86 32q59 0 97 -46.5t38 -113.5q0 -100 -79.5 -197.5t-245.5 -134.5zM164 833.5q0 47.5 32.5 81t79.5 33.5q49 0 81 -32.5t32 -80t-30.5 -83t-78 -35.5t-82 34.5t-34.5 82z" />
<glyph unicode="&#x3c;" horiz-adv-x="1196" d="M145 616v168l969 410v-178l-770 -316l770 -319v-178z" />
<glyph unicode="=" horiz-adv-x="1196" d="M145 391v168h969v-168h-969zM145 838v168h969v-168h-969z" />
<glyph unicode="&#x3e;" horiz-adv-x="1196" d="M145 203v178l770 315l-770 320v178l969 -414v-168z" />
<glyph unicode="?" horiz-adv-x="724" d="M123 82q0 43 32.5 75.5t77.5 32.5q47 0 80 -31.5t33 -76.5t-31.5 -78t-78.5 -33q-49 0 -81 33t-32 78zM180 1133l29 204q119 78 231 78q129 0 214 -84t85 -221q0 -72 -27.5 -136.5t-60.5 -105.5t-110 -127q-98 -109 -148.5 -190.5t-70.5 -210.5h-113q4 166 57 281.5 t156 234.5q74 86 105.5 138.5t31.5 103.5q0 70 -44 109.5t-103 39.5q-100 0 -232 -114z" />
<glyph unicode="@" horiz-adv-x="2068" d="M131 426q0 86 14.5 178t49 193.5t86 193.5t132.5 177t180 146.5t235.5 98.5t293.5 37q203 0 369 -66.5t269.5 -178t159.5 -250t56 -285.5q0 -227 -110.5 -392t-243.5 -251q-113 -74 -250 -74q-61 0 -102 15.5t-58.5 45t-22.5 50t-9 55.5q-141 -166 -306 -166 q-156 0 -259 130t-103 318q0 152 69.5 299.5t190.5 243.5t258 96q190 0 303 -184l33 156h180l-145 -672q-29 -143 -29 -156q0 -31 22.5 -48t45.5 -17q43 0 107.5 40t128 107.5t107.5 177t44 230.5q0 276 -208 453.5t-507 177.5q-252 0 -445.5 -122t-290.5 -316.5t-97 -424.5 q0 -172 51 -307t133 -220t196.5 -140.5t232.5 -78t249 -22.5q154 0 281.5 32t209.5 83t130 95t81 91h180q-14 -31 -39.5 -69.5t-98.5 -111.5t-164 -128t-244.5 -98t-333.5 -43q-262 0 -461 73.5t-316.5 200.5t-176 285t-58.5 342zM696 387q0 -131 64.5 -208t148.5 -77 q137 0 252 153t115 351q0 135 -67.5 211t-164.5 76q-106 0 -190 -90t-121 -203t-37 -213z" />
<glyph unicode="A" d="M-72 0l617 1405h176l272 -1405h-172l-84 438h-438l-184 -438h-187zM360 586h349l-109 573z" />
<glyph unicode="B" horiz-adv-x="1085" d="M78 0l198 1397h162q172 0 264 -33q92 -37 158 -111.5t66 -195.5q0 -70 -20.5 -123t-59.5 -88t-60.5 -49.5t-54.5 -30.5q147 -51 217 -148.5t70 -218.5q0 -125 -67.5 -218t-184.5 -140q-106 -41 -283 -41h-405zM285 156h92q203 0 276 18q74 20 124 78.5t50 142.5 q0 86 -55 160t-145 107q-63 22 -250 22h-17zM383 838q23 -1 45 -1q67 0 129 9q86 16 130 74.5t44 130.5q0 189 -234 189q-28 0 -59 -3z" />
<glyph unicode="C" horiz-adv-x="1126" d="M80 571q0 35 4 73t16.5 112.5t44 146.5t79.5 149.5t133 147.5t194 119q213 97 551 97q32 0 65 -1l-37 -176h-31q-230 0 -399 -55q-117 -39 -202.5 -113t-132 -163t-66.5 -173t-20 -162q0 -186 98 -300.5t252 -114.5q215 0 432 172l-27 -226q-209 -122 -413 -122h-3 q-221 0 -379.5 153.5t-158.5 435.5z" />
<glyph unicode="D" horiz-adv-x="1343" d="M80 0l199 1397h176q375 0 592 -184.5t217 -516.5q0 -406 -303 -596q-74 -45 -170.5 -68.5t-167 -27.5t-181.5 -4h-362zM291 166h84q272 0 399 47q137 53 215 183t78 300q0 326 -276 465q-86 45 -161 56.5t-188 11.5z" />
<glyph unicode="E" horiz-adv-x="1044" d="M78 0l203 1397h739l-23 -166h-559l-61 -438h493l-22 -166h-496l-67 -461h735l-25 -166h-917z" />
<glyph unicode="F" horiz-adv-x="854" d="M63 0l203 1397h666l-23 -166h-485l-62 -434h447l-25 -170h-446l-88 -627h-187z" />
<glyph unicode="G" horiz-adv-x="1236" d="M70 596q0 174 72.5 330.5t185.5 259.5q254 229 706 229q133 0 238 -18l-25 -168q-96 16 -219 16q-356 0 -556 -181t-200 -460q0 -203 112 -328.5t275 -125.5q143 0 281 67l35 242h-201l23 153h387l-72 -508q-229 -122 -457 -122h-4q-264 0 -422.5 177t-158.5 437z" />
<glyph unicode="H" horiz-adv-x="1429" d="M72 0l194 1397h195l-86 -606h758l79 606h193l-193 -1397h-192l88 618h-756l-86 -618h-194z" />
<glyph unicode="I" horiz-adv-x="491" d="M80 0l194 1397h195l-195 -1397h-194z" />
<glyph unicode="J" horiz-adv-x="491" d="M-276 -281q82 -16 143 -16q115 0 158 55.5t61 184.5l207 1454h186l-205 -1432q-10 -70 -17 -111.5t-33.5 -111.5t-62.5 -111t-103.5 -72.5t-155.5 -31.5q-66 0 -129 14z" />
<glyph unicode="K" horiz-adv-x="1153" d="M70 0l198 1397h185l-91 -602l599 602h245l-643 -645l592 -752h-219l-574 731l-108 -731h-184z" />
<glyph unicode="L" horiz-adv-x="854" d="M70 0l200 1397h183l-183 -1239h574l-23 -158h-751z" />
<glyph unicode="M" horiz-adv-x="1665" d="M-2 0l461 1397h162l217 -946l499 946h160l35 -1397h-180l-15 1059l-565 -1059l-246 1073l-346 -1073h-182z" />
<glyph unicode="N" horiz-adv-x="1409" d="M80 0l199 1397h92l698 -1028l145 1028h175l-199 -1397h-98l-693 1020l-145 -1020h-174z" />
<glyph unicode="O" horiz-adv-x="1343" d="M102 573q0 197 78 386.5t238 322.5t360 133q115 0 205 -40t144.5 -101.5t90 -142t49 -152t13.5 -141.5q0 -35 -5 -86.5t-21.5 -139.5t-58.5 -188t-103 -182q-82 -111 -207 -185.5t-283 -74.5q-205 0 -352.5 156.5t-147.5 434.5zM299 539q0 -203 92 -301.5t217 -98.5 q141 0 252 108.5t165 269.5t54 337q0 25 -2 48.5t-9 76.5t-26.5 95t-50 86t-86 68.5t-127.5 24.5q-117 0 -213 -70.5t-151.5 -180t-85 -229.5t-29.5 -234z" />
<glyph unicode="P" horiz-adv-x="917" d="M68 0l194 1397h195q182 0 278 -37q88 -37 155.5 -119t67.5 -223q0 -131 -67.5 -239.5t-188.5 -153.5q-90 -35 -253 -35h-107l-80 -590h-194zM367 756q44 -3 82 -3q50 0 90 5q72 8 121 38.5t69.5 74.5t28.5 79t8 68q0 57 -39 118.5t-125 84.5q-53 12 -168 12z" />
<glyph unicode="Q" horiz-adv-x="1343" d="M102 586q0 113 29 228.5t86 223t137 191.5t191.5 135t238.5 51q229 0 358.5 -159.5t129.5 -426.5q0 -184 -55.5 -350t-185.5 -300t-316 -179q41 -113 123 -171t166 -58q123 0 215 104q36 43 65 125h23q0 -31 -4.5 -68.5t-26 -100t-55 -111t-101 -84t-157.5 -35.5 q-182 0 -324 157q-66 72 -131 242q-129 31 -209 100q-197 164 -197 486zM297 530q0 -195 89 -297t220 -102q147 0 259 114.5t164 275.5t52 331q0 180 -78.5 287.5t-220.5 107.5q-123 0 -220 -72.5t-152.5 -184t-84 -230.5t-28.5 -230z" />
<glyph unicode="R" horiz-adv-x="1087" d="M76 0l192 1397h254q203 0 297 -51q178 -100 178 -316q0 -125 -70.5 -221t-215.5 -133q43 -29 72.5 -76t70.5 -133l223 -467h-200q-131 276 -142 293q-51 104 -82.5 158.5t-61.5 95.5t-66 53q-37 12 -71 16q-21 3 -53 3q-22 0 -49 -1l-84 -618h-192zM375 784q174 0 217 9 q109 20 159 87.5t50 149.5q0 57 -22.5 99t-51.5 61.5t-75 31t-71.5 12.5t-66.5 1h-74z" />
<glyph unicode="S" horiz-adv-x="937" d="M102 82l29 205q68 -59 159 -95t165 -36q78 0 144.5 46t66.5 132q0 78 -52.5 138t-181.5 165q-45 37 -74.5 63.5t-73.5 80t-67.5 118t-23.5 135.5q0 164 132 272.5t322 108.5q127 0 254 -55l-29 -191q-104 74 -227 74q-119 0 -191.5 -54t-72.5 -147q0 -49 27.5 -97 t56.5 -75.5t84 -70.5q80 -63 118 -98t90 -93.5t74.5 -121t22.5 -134.5q0 -147 -108.5 -258.5t-305.5 -111.5q-174 0 -338 100z" />
<glyph unicode="T" horiz-adv-x="1044" d="M137 1221l27 176h971l-27 -176h-385l-174 -1221h-191l174 1221h-395z" />
<glyph unicode="U" horiz-adv-x="1300" d="M127 412q0 72 12 153l117 832h188l-127 -885q-6 -37 -6 -102q0 -100 77 -178t226 -78q113 0 194 48t120 120q39 68 69 262l115 813h191l-119 -832q-33 -229 -109 -348q-153 -235 -468 -235h-3q-233 0 -355 125.5t-122 304.5z" />
<glyph unicode="V" horiz-adv-x="1044" d="M131 1397h180l185 -975l469 975h192l-680 -1405h-74z" />
<glyph unicode="W" horiz-adv-x="1898" d="M123 1397h176l229 -989l473 989h72l273 -1006l479 1006h194l-673 -1405h-74l-271 987l-473 -987h-75z" />
<glyph unicode="X" horiz-adv-x="1366" d="M-37 0l649 739l-413 658h213l329 -514l455 514h244l-598 -678l454 -719h-219l-362 575l-502 -575h-250z" />
<glyph unicode="Y" horiz-adv-x="1003" d="M121 1397h194l240 -512l356 512h213l-487 -701l-100 -696h-187l101 696z" />
<glyph unicode="Z" horiz-adv-x="1193" d="M-66 0l1014 1223h-794l24 174h1147l-1018 -1223h828l-25 -174h-1176z" />
<glyph unicode="[" horiz-adv-x="681" d="M76 -453l264 1850h432l-20 -137h-263l-225 -1575h264l-20 -138h-432z" />
<glyph unicode="\" horiz-adv-x="575" d="M156 1415h137l199 -1433h-136z" />
<glyph unicode="]" horiz-adv-x="681" d="M-100 -453l18 138h264l224 1575h-263l19 137h432l-262 -1850h-432z" />
<glyph unicode="^" horiz-adv-x="960" d="M90 596l352 801h146l354 -801h-180l-248 598l-240 -598h-184z" />
<glyph unicode="_" horiz-adv-x="1024" d="M-12 -154h1048v-102h-1048v102z" />
<glyph unicode="`" horiz-adv-x="681" d="M223 1346h207l139 -299h-114z" />
<glyph unicode="a" horiz-adv-x="960" d="M72 338q0 35 5 78t19.5 108.5t52 134t91.5 121.5q168 168 454 168h8q116 0 211 -28l-131 -920h-172l15 111q-123 -123 -252 -123q-137 0 -219 111.5t-82 238.5zM254 369q0 -106 51 -175t129 -69q63 0 122.5 50t90.5 95l76 527q-22 1 -43 1q-100 0 -178 -31 q-94 -38 -140.5 -92t-73 -127t-30.5 -112t-4 -67z" />
<glyph unicode="b" horiz-adv-x="964" d="M61 -14l191 1411h184l-80 -551q109 102 226 102q152 0 238.5 -120.5t86.5 -299.5q0 -248 -155 -403q-156 -154 -455 -154q-137 0 -236 15zM252 115q6 0 29.5 -1t40.5 -1q135 0 217 45q188 109 188 374q0 145 -62.5 204t-138.5 59q-53 0 -116.5 -31t-75.5 -84z" />
<glyph unicode="c" horiz-adv-x="788" d="M66 393q0 94 33.5 187.5t102 178.5t190.5 137t280 52q69 0 147 -16l-22 -154q-86 14 -133 15q-201 0 -309.5 -125t-108.5 -273q0 -25 4 -53.5t20.5 -68.5t41 -70.5t73.5 -53t113 -22.5q131 0 256 94l-27 -184q-121 -66 -256 -66q-111 0 -193.5 40t-127 104.5t-64.5 134 t-20 143.5z" />
<glyph unicode="d" horiz-adv-x="964" d="M63 385q0 164 102.5 313.5t274.5 210.5q107 37 270 37h33l64 451h176l-201 -1397q-115 -29 -235 -29q-238 0 -361 115q-123 117 -123 299zM246 393q0 -121 73.5 -200.5t227.5 -79.5q47 0 78 6l98 684q-137 0 -213 -29q-131 -45 -197.5 -152.5t-66.5 -228.5z" />
<glyph unicode="e" horiz-adv-x="897" d="M78 408q0 225 122 382.5t308 157.5q145 0 239.5 -105.5t94.5 -275.5q0 -49 -8 -90h-576q-4 -66 -4 -90q0 -123 67.5 -197.5t157.5 -74.5q132 0 318 141l-27 -182q-143 -102 -305 -103q-176 0 -281.5 123t-105.5 314zM287 598h385v8q0 92 -44 146q-46 56 -120 55 q-149 0 -221 -209z" />
<glyph unicode="f" horiz-adv-x="555" d="M61 -387l146 1151h-146l23 156h147q18 211 99 325q119 170 342 170q100 0 223 -43l-25 -172q-92 51 -188 51q-131 0 -199.5 -92t-81.5 -239h187l-23 -156h-186l-148 -1151h-170z" />
<glyph unicode="g" horiz-adv-x="874" d="M-23 -240q0 47 25 82t74 57.5t80.5 33t85.5 22.5q-31 12 -47.5 20.5t-48 28t-48 49t-16.5 64.5q0 55 51 102t131 70q-166 78 -166 264q0 55 16.5 116.5t77 134.5t156.5 99q53 16 156 17h407l-18 -138h-178q61 -90 61 -184t-42 -175t-118 -126q-35 -20 -74.5 -34.5 t-67.5 -19.5t-95 -16q-6 0 -35 -7t-63.5 -26.5t-34.5 -46.5q0 -33 46 -51t163 -45q297 -76 297 -260q0 -98 -95.5 -181t-281.5 -83q-158 0 -278 64.5t-120 168.5zM141 -238q0 -49 74 -76.5t164 -27.5q100 0 151.5 35t51.5 80q0 43 -57.5 78t-143.5 55q-240 -55 -240 -144z M264 559q0 -74 46 -128t118 -54q78 0 130 64.5t52 150.5q0 84 -48 135t-113 51q-84 0 -134.5 -70.5t-50.5 -148.5z" />
<glyph unicode="h" horiz-adv-x="960" d="M41 0l201 1397h174l-90 -629q164 180 329 180q82 0 145.5 -61.5t63.5 -186.5q0 -57 -10 -116l-82 -584h-176l84 598q8 43 8 84q0 55 -22 86q-33 45 -84 45q-76 0 -168 -92q-68 -68 -111 -123l-88 -598h-174z" />
<glyph unicode="i" horiz-adv-x="385" d="M45 0l131 920h174l-131 -920h-174zM203 1212.5q0 38.5 28.5 67.5t69.5 29q43 0 71.5 -29t28.5 -68q0 -37 -27.5 -67.5t-70.5 -30.5t-71.5 30t-28.5 68.5z" />
<glyph unicode="j" horiz-adv-x="374" d="M-227 -453l22 154q35 -10 76 -10q37 0 65.5 13t43 30.5t25.5 50.5t15.5 54.5t8.5 60.5l131 1020h174l-131 -1035q-18 -141 -47 -198q-82 -160 -271 -160q-55 0 -112 20zM190 1214.5q0 36.5 28 65.5t69 29q43 0 70.5 -30t27.5 -65q0 -37 -26.5 -65.5t-69.5 -28.5 q-41 0 -70 29t-29 65.5z" />
<glyph unicode="k" horiz-adv-x="937" d="M47 0l199 1397h172l-129 -877l393 400h233l-421 -435l444 -485h-227l-422 467l-70 -467h-172z" />
<glyph unicode="l" horiz-adv-x="385" d="M45 0l199 1397h174l-199 -1397h-174z" />
<glyph unicode="m" horiz-adv-x="1515" d="M45 0l131 920h172l-22 -164q160 178 321 178q76 0 135.5 -48t75.5 -157q160 205 342 205q82 0 149.5 -56.5t67.5 -195.5q0 -47 -12 -137l-78 -545h-174l84 584q6 68 6 78q0 78 -30.5 107.5t-67.5 29.5q-70 0 -147.5 -66.5t-139.5 -148.5l-86 -584h-174l72 502 q14 109 14 166q0 74 -34 101.5t-72 27.5q-113 0 -277 -213l-84 -584h-172z" />
<glyph unicode="n" horiz-adv-x="964" d="M45 0l131 920h176l-24 -166q154 180 307 180q121 0 176 -86t55 -182q0 -41 -10 -113l-84 -553h-174l74 553q10 72 10 111q0 47 -27.5 87t-76.5 40q-53 0 -120 -49.5t-101.5 -89.5t-53.5 -66l-84 -586h-174z" />
<glyph unicode="o" horiz-adv-x="917" d="M211 799.5q137 148.5 305 148.5q152 0 246 -109.5t94 -293.5q0 -272 -134 -423t-308 -151q-129 0 -224 84q-116 105 -116 324q0 272 137 420.5zM252 340q0 -119 53 -176.5t107 -57.5q84 0 147.5 74t91 173.5t27.5 201.5t-41 175t-123 73q-113 0 -187.5 -132t-74.5 -331z " />
<glyph unicode="p" horiz-adv-x="1003" d="M25 -453l168 1145q-78 -59 -134 -145q-16 -23 -22 -23q-8 0 -8 13q0 39 41 112q45 80 135 170l51 334h170l-33 -233q57 18 99 24q27 4 63 4q123 0 211 -71.5t126 -168t38 -196.5q0 -170 -98.5 -310.5t-249.5 -195.5q-96 -33 -284 -33h-42l-63 -426h-168zM279 119 q25 -4 61 -4q111 0 194.5 39t129 102t67 129t21.5 131q0 137 -79 219t-184 82h-3q-44 0 -111 -26z" />
<glyph unicode="q" horiz-adv-x="960" d="M61 383q0 76 20.5 154.5t82 169t158.5 145.5q162 94 460 94h129l-196 -1399h-178l67 480q-111 -55 -198 -56q-156 0 -250.5 120t-94.5 292zM242 373q0 -137 72.5 -199.5t160.5 -62.5q54 0 148 45l92 649q-141 0 -240 -37q-117 -47 -175 -157.5t-58 -237.5z" />
<glyph unicode="r" horiz-adv-x="641" d="M74 0l131 920h172l-27 -197q109 211 250 211q33 0 76 -14v-197q-57 31 -105 31q-94 0 -188 -131q-39 -55 -61 -105l-74 -518h-174z" />
<glyph unicode="s" horiz-adv-x="724" d="M23 92l28 168q180 -137 289 -137q49 0 82 28.5t33 71.5q0 33 -23.5 64.5t-55.5 56.5t-128 94q-154 106 -154 248q0 106 75 181t210 75q133 0 283 -96v-182q-159 120 -279 120h-2q-53 0 -87 -25.5t-34 -64.5q0 -25 24.5 -54.5t48 -47t68.5 -49.5q84 -59 123 -92t71 -88.5 t32 -122.5q0 -109 -77 -189t-212 -80q-82 0 -151.5 27t-163.5 94z" />
<glyph unicode="t" horiz-adv-x="598" d="M74 784l20 136h168l35 188h172l-33 -188h178l-22 -136h-182l-62 -350q-33 -188 -33 -233q0 -74 101 -74q82 0 164 59l-11 -174q-102 -41 -190 -41q-127 0 -185.5 63.5t-58.5 141.5q0 45 35 227l66 381h-162z" />
<glyph unicode="u" horiz-adv-x="960" d="M80 233q0 43 18 168l74 519h174l-78 -562q-12 -74 -12 -108q0 -55 25.5 -87t44 -36t32.5 -4q84 0 179 94q70 70 98 105l84 598h174l-131 -920h-174l22 158q-168 -168 -307 -168q-98 0 -160.5 65.5t-62.5 177.5z" />
<glyph unicode="v" horiz-adv-x="768" d="M74 920h174l121 -566l295 566h178l-473 -938h-86z" />
<glyph unicode="w" horiz-adv-x="1259" d="M66 920h170l112 -601l301 601h86l117 -601l303 601h170l-473 -938h-82l-121 602l-313 -602h-80z" />
<glyph unicode="x" horiz-adv-x="874" d="M-63 0l401 487l-217 433h186l146 -291l239 291h215l-370 -455l233 -465h-186l-168 326l-266 -326h-213z" />
<glyph unicode="y" horiz-adv-x="768" d="M-33 -471l250 526l-174 865h174l121 -615l291 615h182l-661 -1391h-183z" />
<glyph unicode="z" horiz-adv-x="937" d="M-27 0l600 762h-467l23 158h789l-613 -764h535l-33 -156h-834z" />
<glyph unicode="{" horiz-adv-x="681" d="M90 383v158q49 2 86 15t58.5 44t35 57.5t18.5 80t7 84t2 96.5q0 178 10 254.5t58 136.5q31 41 80 61.5t81.5 23.5t85.5 3h56v-152h-31q-125 0 -148.5 -52t-23.5 -294q2 -213 -46 -299t-163 -139q45 -18 78 -43t55.5 -48.5t36.5 -68.5t22.5 -74.5t12.5 -100.5t4 -111v-136 q0 -127 35 -164t137 -37h31v-153h-56q-47 0 -73.5 2t-74.5 16.5t-76 41t-54.5 83t-32.5 135.5q-2 33 -5 183.5t-3 165.5q-12 227 -203 231z" />
<glyph unicode="|" horiz-adv-x="532" d="M221 -475v1872h156v-1872h-156z" />
<glyph unicode="}" horiz-adv-x="681" d="M78 -322h33q125 0 148.5 52.5t21.5 292.5q0 147 26.5 236t67.5 128t117 74q-63 25 -103.5 63.5t-62 77.5t-31.5 118t-11 138.5t-1 186t-35 163.5t-137 37h-33v152h57q47 0 74 -2t74 -16.5t75.5 -41t54 -83t31.5 -136.5q2 -23 4.5 -97.5t4.5 -154.5t2 -96 q12 -225 202 -229v-158q-49 -2 -85.5 -15.5t-58 -44t-35 -57t-18.5 -81t-7 -85t-2 -96.5q0 -174 -11.5 -252t-56.5 -139q-31 -41 -80 -61.5t-82 -23.5t-86 -3h-57v153z" />
<glyph unicode="~" horiz-adv-x="1196" d="M119 537v202q104 121 278 121q111 0 273 -69q147 -63 213 -64q123 0 258 135v-211q-123 -115 -277 -114q-109 0 -243 61q-162 74 -242 74q-55 0 -108.5 -23.5t-81 -47t-70.5 -64.5z" />
<glyph unicode="&#xa1;" horiz-adv-x="512" d="M57 -281q0 82 109 517q39 137 70 360h81q-35 -203 -45 -553q0 -143 -18 -279q-20 -158 -111 -157q-31 0 -58.5 25.5t-27.5 86.5zM199 852q0 47 31.5 81t78.5 34q49 0 82 -35t33 -78q0 -45 -32 -80t-81 -35q-47 0 -79.5 33t-32.5 80z" />
<glyph unicode="&#xa2;" horiz-adv-x="788" d="M57 391q0 223 149.5 383t403.5 170l109 361h100l-112 -361q65 -6 100 -14l-23 -152q-6 0 -34.5 4t-55 7.5t-39.5 3.5l-204 -666q145 -12 290 94l-22 -184q-109 -66 -250 -66q-25 0 -66 11l-114 -367h-94l118 385q-74 27 -123 70q-133 119 -133 321zM236 401 q-1 -169 126 -249l197 632q-160 -33 -241.5 -142.5t-81.5 -240.5z" />
<glyph unicode="&#xa3;" horiz-adv-x="960" d="M74 -16l213 620h-181l54 164h180q39 106 70.5 182t85 171.5t107.5 153.5t134 99t170 41q59 0 129 -18l-22 -178q-61 20 -107 20q-121 0 -219 -137q-80 -111 -158 -334h224l-52 -164h-225l-137 -411q33 4 57 4q49 0 154 -19q109 -16 156 -16q102 0 231 55l-29 -190 q-98 -45 -227 -45q-47 0 -147 14q-119 20 -218 20q-111 0 -190 -22q-39 -10 -53 -10z" />
<glyph unicode="&#xa4;" horiz-adv-x="1130" d="M104 328l140 135q-72 109 -72 235.5t72 235.5l-140 137l115 119l139 -141q104 74 238 73q129 0 238 -73l137 141l116 -119l-139 -137q72 -113 72 -236t-72 -235l139 -135l-116 -119l-137 139q-109 -74 -238 -74q-133 0 -238 74l-139 -139zM336 698q0 -106 75.5 -183 t182 -77t183.5 76t77 184.5t-77 184t-183.5 75.5t-182 -75.5t-75.5 -184.5z" />
<glyph unicode="&#xa5;" horiz-adv-x="1130" d="M63 303l29 139h416l33 158h-420l29 139h348l-265 727h181l118 -315q102 -270 132 -379q45 98 129 215l346 479h227l-545 -727h342l-28 -139h-412l-33 -158h416l-29 -139h-418l-63 -303h-182l65 303h-416z" />
<glyph unicode="&#xa6;" horiz-adv-x="532" d="M221 291h156v-766h-156v766zM221 633v764h156v-764h-156z" />
<glyph unicode="&#xa7;" horiz-adv-x="1003" d="M51 -178l158 88q-4 -29 -4 -49q0 -186 176 -187q94 0 140 48.5t46 105.5q0 63 -43 120.5t-143 145.5q-74 66 -111 100.5t-84 89t-66.5 105.5t-19.5 109q0 106 72 205.5t231 136.5q-57 68 -83.5 117t-26.5 120q0 133 99.5 235.5t277.5 102.5q139 0 209.5 -67.5 t70.5 -178.5q0 -25 -6 -55l-162 -59q20 47 21 82q0 72 -46 101.5t-95 29.5q-72 0 -131.5 -47t-59.5 -119q0 -63 39 -112.5t127 -121.5q63 -53 98 -84.5t86 -90t76 -120t25 -127.5q0 -63 -24 -118.5t-51.5 -90t-74.5 -68.5t-69.5 -46t-57.5 -29q35 -47 52.5 -73.5t35 -75.5 t17.5 -101q0 -121 -92.5 -218t-274.5 -97q-164 0 -249 79t-83 214zM279 512q0 -63 54 -125.5t189 -177.5q86 23 151.5 79t65.5 138q0 61 -51 134t-92 110t-57 47q-123 -4 -191.5 -63.5t-68.5 -141.5z" />
<glyph unicode="&#xa8;" horiz-adv-x="681" d="M164 1200q0 39 27.5 66.5t66.5 27.5t66.5 -27.5t27.5 -66.5t-27.5 -66.5t-66.5 -27.5t-66.5 27.5t-27.5 66.5zM549 1200q0 39 27.5 66.5t66.5 27.5t66.5 -27.5t27.5 -66.5t-27.5 -66.5t-66.5 -27.5t-66.5 27.5t-27.5 66.5z" />
<glyph unicode="&#xa9;" horiz-adv-x="1515" d="M23 661.5q0 313.5 221 533.5t532 220q313 0 534.5 -220t221.5 -533q0 -311 -221 -533.5t-535 -222.5q-311 0 -532 221t-221 534.5zM147 661.5q0 -262.5 184.5 -446.5t444.5 -184t444.5 184t184.5 446.5t-184.5 445.5t-444.5 183t-444.5 -183t-184.5 -445.5zM383 659 q0 197 106.5 310.5t296.5 113.5q123 0 214.5 -58t125.5 -177l-118 -29q-25 59 -64 94q-68 59 -162 60q-135 0 -199.5 -94.5t-64.5 -223.5q0 -152 70.5 -230.5t181.5 -78.5q27 0 56.5 6t69.5 24.5t74 61t48 101.5l123 -37q-33 -137 -134.5 -205t-228.5 -68q-176 0 -285.5 115 t-109.5 315z" />
<glyph unicode="&#xaa;" horiz-adv-x="638" d="M106 1051q0 158 106.5 261t303.5 103q82 0 154 -18l-86 -553h-135l8 47q-72 -53 -146 -53q-94 0 -149.5 67.5t-55.5 145.5zM246 1067q0 -55 28.5 -96t75.5 -41q53 0 125 80l47 305q-80 0 -129 -19q-70 -27 -108.5 -92t-38.5 -137z" />
<glyph unicode="&#xab;" horiz-adv-x="897" d="M35 461l338 459h159l-350 -480l172 -440h-139zM424 438l381 482h162l-396 -506l162 -414h-137z" />
<glyph unicode="&#xac;" horiz-adv-x="1196" d="M145 838v168h969v-615h-168v447h-801z" />
<glyph unicode="&#xad;" horiz-adv-x="661" d="M82 356v195h498v-195h-498z" />
<glyph unicode="&#xae;" horiz-adv-x="1515" d="M23 661.5q0 313.5 221 533.5t532 220q313 0 534.5 -220t221.5 -533q0 -311 -221 -533.5t-535 -222.5q-311 0 -532 221t-221 534.5zM147 661.5q0 -262.5 184.5 -446.5t444.5 -184t444.5 184t184.5 446.5t-184.5 445.5t-444.5 183t-444.5 -183t-184.5 -445.5zM444 244v811 h281q201 0 268 -56q78 -68 78 -163q0 -80 -58.5 -151t-172.5 -79q43 -16 82 -55t106 -150l98 -157h-159l-72 129q-76 133 -120 174t-122 41h-75v-344h-134zM578 700h157q197 0 197 125q0 41 -18.5 68t-56.5 37t-63.5 12t-68.5 2h-147v-244z" />
<glyph unicode="&#xaf;" horiz-adv-x="681" d="M92 1133l17 131h659l-16 -131h-660z" />
<glyph unicode="&#xb0;" horiz-adv-x="811" d="M213 1139q0 115 81 195.5t195.5 80.5t196.5 -81t82 -195q0 -117 -82 -198t-196.5 -81t-195.5 81t-81 198zM322 1138.5q0 -69.5 49 -119.5t118.5 -50t119.5 50t50 119.5t-50 119t-119.5 49.5t-118.5 -49.5t-49 -119z" />
<glyph unicode="&#xb1;" horiz-adv-x="1196" d="M145 -25v168h969v-168h-969zM145 637v168h400v401h168v-401h401v-168h-401v-399h-168v399h-400z" />
<glyph unicode="&#xb2;" horiz-adv-x="661" d="M59 680q33 29 137.5 144.5t155.5 176.5q135 166 135 232q0 78 -104 78q-86 0 -197 -72l21 123q106 53 196 53q96 0 154.5 -49t58.5 -123q0 -92 -100 -219q-65 -84 -217 -246h309l-16 -98h-533z" />
<glyph unicode="&#xb3;" horiz-adv-x="661" d="M94 713l17 100q109 -45 190 -45q90 0 128 39t38 90q0 59 -46 87t-108 22l17 94q35 4 50 7t54 16.5t58.5 39t19.5 62.5q0 39 -26.5 61.5t-49 26.5t-41.5 4q-88 0 -178 -55l21 118q90 35 176 35q98 0 167.5 -48t69.5 -138q0 -123 -151 -176q102 -43 102 -154 q0 -90 -76.5 -159.5t-216.5 -69.5q-104 0 -215 43z" />
<glyph unicode="&#xb4;" horiz-adv-x="681" d="M309 1047l140 299h206l-231 -299h-115z" />
<glyph unicode="&#xb5;" horiz-adv-x="1130" d="M49 -469l199 1391h176l-72 -506q-12 -74 -12 -103q0 -72 51 -127t135 -55q55 0 94 20.5t58.5 61.5t27 66.5t13.5 68.5l82 574h174l-82 -586q-12 -84 -12 -100q0 -14 3 -32t21.5 -42.5t52.5 -24.5q45 0 101 23l-21 -150q-88 -37 -153 -37q-49 0 -83 16.5t-46.5 32 t-26.5 46.5q-113 -92 -213 -93q-82 0 -145 54q-41 37 -62 94l-86 -592h-174z" />
<glyph unicode="&#xb6;" horiz-adv-x="1110" d="M57 975q0 125 56.5 226.5t165 148.5t251.5 47h633v-172h-143v-1700h-168v1700h-223v-1700h-166v1044q-199 10 -302.5 126t-103.5 280z" />
<glyph unicode="&#xb7;" horiz-adv-x="532" d="M156 625q0 47 32.5 79.5t77.5 32.5q47 0 79 -32.5t32 -79.5q0 -45 -33 -78t-78 -33t-77.5 33t-32.5 78z" />
<glyph unicode="&#xb8;" horiz-adv-x="681" d="M88 -336l25 94q55 -14 86 -14q37 0 66.5 18.5t29.5 57.5q0 27 -12.5 40t-42.5 34l59 120h70l-19 -49q94 -43 94 -137q0 -63 -53 -120.5t-168 -57.5q-72 0 -135 14z" />
<glyph unicode="&#xb9;" horiz-adv-x="661" d="M276 680l132 727h133l-131 -727h-134z" />
<glyph unicode="&#xba;" horiz-adv-x="618" d="M123 1075q0 162 91 251t204 89q100 0 164.5 -65.5t64.5 -178.5q0 -166 -89 -255t-204 -89q-29 0 -59.5 7.5t-74.5 30t-70.5 76.5t-26.5 134zM260 1051q0 -63 31 -97t63 -34q72 0 114 82t42 176q0 57 -23.5 98t-68.5 41q-68 0 -113 -78t-45 -188z" />
<glyph unicode="&#xbb;" horiz-adv-x="897" d="M-63 0l395 504l-162 416h137l172 -441l-381 -479h-161zM371 0l350 475l-172 445h139l180 -463l-338 -457h-159z" />
<glyph unicode="&#xbc;" horiz-adv-x="1728" d="M238 -55l1114 1470h137l-1108 -1470h-143zM272 678l131 727h134l-131 -727h-134zM1065 221v47l444 469h84l-75 -428h120l-18 -88h-119l-41 -221h-129l43 221h-309zM1243 309h148l32 187z" />
<glyph unicode="&#xbd;" horiz-adv-x="1728" d="M190 -55l1113 1470h139l-1110 -1470h-142zM276 680l132 727h133l-131 -727h-134zM1030 0q23 20 80 82.5t109 120.5l51 57q188 217 188 293q0 80 -106 80q-80 0 -195 -74l21 121q109 57 196 57q96 0 154.5 -50t58.5 -124q0 -88 -100 -219q-57 -78 -217 -246h307l-16 -98 h-531z" />
<glyph unicode="&#xbe;" horiz-adv-x="1728" d="M90 713l16 100q109 -45 191 -45q90 0 128 39t38 90q0 59 -45 86t-109 23l17 94q35 4 50 7t54 16.5t58.5 39t19.5 62.5q0 39 -26.5 61.5t-49 26.5t-41.5 4q-88 0 -178 -55l20 118q90 35 177 35q98 0 167.5 -48t69.5 -138q0 -123 -151 -176q102 -43 102 -154 q0 -90 -77 -159.5t-216 -69.5q-104 0 -215 43zM274 -55l1112 1470h140l-1108 -1470h-144zM1065 221v47l444 469h84l-75 -428h120l-18 -88h-119l-41 -221h-129l43 221h-309zM1243 309h148l32 187z" />
<glyph unicode="&#xbf;" horiz-adv-x="724" d="M-2 -90q0 100 50 174t185 211q74 76 113 136.5t46 89t9 73.5h119q-2 -135 -42 -233.5t-167 -223.5q-45 -45 -65.5 -68.5t-44 -65.5t-23.5 -83q0 -55 42 -102t108 -47q103 0 250 129l-33 -209q-121 -84 -258 -84q-123 0 -206 87t-83 216zM375 850q0 47 32.5 81t79.5 34 q49 0 81 -36t32 -77q0 -43 -31.5 -79t-81.5 -36q-45 0 -78.5 33t-33.5 80z" />
<glyph unicode="&#xc0;" d="M-72 0l617 1405h176l272 -1405h-172l-84 438h-438l-184 -438h-187zM336 1800h293l151 -307h-104zM360 586h349l-109 573z" />
<glyph unicode="&#xc1;" d="M-72 0l617 1405h176l272 -1405h-172l-84 438h-438l-184 -438h-187zM360 586h349l-109 573zM543 1493l149 307h297l-340 -307h-106z" />
<glyph unicode="&#xc2;" d="M-72 0l617 1405h176l272 -1405h-172l-84 438h-438l-184 -438h-187zM283 1493l282 307h254l139 -307h-98l-166 174l-288 -174h-123zM360 586h349l-109 573z" />
<glyph unicode="&#xc3;" d="M-72 0l617 1405h176l272 -1405h-172l-84 438h-438l-184 -438h-187zM295 1493q0 127 67.5 187.5t143.5 60.5q61 0 160 -49q8 -4 28.5 -15.5t32.5 -17.5t29.5 -11.5t31.5 -5.5q63 0 78 99h107q0 -106 -54.5 -177t-150.5 -71q-74 0 -172 51q-88 47 -117 47 q-37 0 -56.5 -31.5t-21.5 -66.5h-106zM360 586h349l-109 573z" />
<glyph unicode="&#xc4;" d="M-72 0l617 1405h176l272 -1405h-172l-84 438h-438l-184 -438h-187zM332 1649q0 45 31.5 76.5t76.5 31.5t77 -31.5t32 -76.5q0 -41 -30 -75t-79 -34q-45 0 -76.5 32t-31.5 77zM360 586h349l-109 573zM754 1649q0 45 31.5 76.5t76.5 31.5t77 -31.5t32 -76.5t-32 -77 t-77 -32t-76.5 32t-31.5 77z" />
<glyph unicode="&#xc5;" d="M-72 0l617 1405h176l272 -1405h-172l-84 438h-438l-184 -438h-187zM360 586h349l-109 573zM446 1700q0 86 60.5 146.5t146.5 60.5q92 0 149.5 -64.5t57.5 -142.5q0 -84 -57.5 -145.5t-149.5 -61.5q-90 0 -148.5 61.5t-58.5 145.5zM541 1700q0 -45 32.5 -79t79.5 -34 t80 34t33 79t-33 78.5t-80 33.5t-79.5 -33.5t-32.5 -78.5z" />
<glyph unicode="&#xc6;" horiz-adv-x="1705" d="M-43 0l797 1397h886l-20 -170h-539l-59 -428h502l-23 -166h-504l-65 -465h731l-23 -168h-917l90 633h-309l-348 -633h-199zM584 780h254l63 463h-63z" />
<glyph unicode="&#xc7;" horiz-adv-x="1120" d="M80 563q0 55 7 117.5t37 159t78 180.5t140 168t213 135q254 104 606 92l-31 -172q-111 -2 -165 -5t-145 -21.5t-173 -51.5q-104 -43 -181 -119.5t-115 -164.5t-55 -163t-17 -143q0 -190 101 -304.5t257 -114.5q119 0 238.5 58.5t185.5 113.5l-25 -224 q-203 -117 -391 -120q61 -16 86 -35q55 -45 55 -119q0 -82 -78.5 -151.5t-246.5 -69.5q-98 0 -166 16l33 109q66 -14 119 -14.5t92 24.5t39 68q0 63 -86 79l55 93q-119 18 -208 71.5t-137 117t-77 142t-37 136t-8 112.5z" />
<glyph unicode="&#xc8;" horiz-adv-x="1044" d="M78 0l203 1397h739l-23 -166h-559l-61 -438h493l-22 -166h-496l-67 -461h735l-25 -166h-917zM346 1800h293l152 -307h-105z" />
<glyph unicode="&#xc9;" horiz-adv-x="1044" d="M78 0l203 1397h739l-23 -166h-559l-61 -438h493l-22 -166h-496l-67 -461h735l-25 -166h-917zM614 1493l150 307h297l-340 -307h-107z" />
<glyph unicode="&#xca;" horiz-adv-x="1044" d="M78 0l203 1397h739l-23 -166h-559l-61 -438h493l-22 -166h-496l-67 -461h735l-25 -166h-917zM293 1493l282 307h254l140 -307h-99l-165 174l-289 -174h-123z" />
<glyph unicode="&#xcb;" horiz-adv-x="1044" d="M78 0l203 1397h739l-23 -166h-559l-61 -438h493l-22 -166h-496l-67 -461h735l-25 -166h-917zM342 1649q0 45 32 76.5t77 31.5t76.5 -31.5t31.5 -76.5q0 -41 -29.5 -75t-78.5 -34q-45 0 -77 32t-32 77zM764 1649q0 45 31.5 76.5t77 31.5t77 -31.5t31.5 -76.5t-31.5 -77 t-77 -32t-77 32t-31.5 77z" />
<glyph unicode="&#xcc;" horiz-adv-x="491" d="M37 1800h293l151 -307h-104zM80 0l194 1397h195l-195 -1397h-194z" />
<glyph unicode="&#xcd;" horiz-adv-x="491" d="M80 0l194 1397h195l-195 -1397h-194zM295 1493l149 307h297l-340 -307h-106z" />
<glyph unicode="&#xce;" horiz-adv-x="491" d="M16 1493l283 307h254l139 -307h-98l-166 174l-289 -174h-123zM80 0l194 1397h195l-195 -1397h-194z" />
<glyph unicode="&#xcf;" horiz-adv-x="491" d="M66 1649q0 45 31.5 76.5t76.5 31.5t77 -31.5t32 -76.5q0 -41 -30 -75t-79 -34q-45 0 -76.5 32t-31.5 77zM80 0l194 1397h195l-195 -1397h-194zM487 1649q0 45 32 76.5t77 31.5t77 -31.5t32 -76.5t-32 -77t-77 -32t-77 32t-32 77z" />
<glyph unicode="&#xd0;" horiz-adv-x="1343" d="M8 631l17 135h163l91 631h176q375 0 592 -184.5t217 -516.5q0 -406 -303 -596q-74 -45 -170.5 -68.5t-167 -27.5t-181.5 -4h-362l90 631h-162zM291 166h84q272 0 399 47q139 53 216 183t77 300q0 272 -193 414q-74 55 -158.5 83t-136 32t-137.5 4l-67 -463h323l-18 -135 h-324z" />
<glyph unicode="&#xd1;" horiz-adv-x="1409" d="M80 0l199 1397h92l698 -1028l145 1028h175l-199 -1397h-98l-693 1020l-145 -1020h-174zM518 1493q0 127 67.5 187.5t143.5 60.5q61 0 160 -49q8 -4 28.5 -15.5t33 -17.5t29.5 -11.5t32 -5.5q63 0 78 99h106q0 -106 -54.5 -177t-150.5 -71q-74 0 -172 51q-88 47 -117 47 q-37 0 -56 -31.5t-21 -66.5h-107z" />
<glyph unicode="&#xd2;" horiz-adv-x="1343" d="M102 573q0 197 78 386.5t238 322.5t360 133q115 0 205 -40t144.5 -101.5t90 -142t49 -152t13.5 -141.5q0 -35 -5 -86.5t-21.5 -139.5t-58.5 -188t-103 -182q-82 -111 -207 -185.5t-283 -74.5q-205 0 -352.5 156.5t-147.5 434.5zM299 539q0 -203 92 -301.5t217 -98.5 q141 0 252 108.5t165 269.5t54 337q0 25 -2 48.5t-9 76.5t-26.5 95t-50 86t-86 68.5t-127.5 24.5q-117 0 -213 -70.5t-151.5 -180t-85 -229.5t-29.5 -234zM516 1800h293l152 -307h-105z" />
<glyph unicode="&#xd3;" horiz-adv-x="1343" d="M102 573q0 197 78 386.5t238 322.5t360 133q115 0 205 -40t144.5 -101.5t90 -142t49 -152t13.5 -141.5q0 -35 -5 -86.5t-21.5 -139.5t-58.5 -188t-103 -182q-82 -111 -207 -185.5t-283 -74.5q-205 0 -352.5 156.5t-147.5 434.5zM299 539q0 -203 92 -301.5t217 -98.5 q141 0 252 108.5t165 269.5t54 337q0 25 -2 48.5t-9 76.5t-26.5 95t-50 86t-86 68.5t-127.5 24.5q-117 0 -213 -70.5t-151.5 -180t-85 -229.5t-29.5 -234zM682 1493l149 307h297l-340 -307h-106z" />
<glyph unicode="&#xd4;" horiz-adv-x="1343" d="M102 573q0 197 78 386.5t238 322.5t360 133q115 0 205 -40t144.5 -101.5t90 -142t49 -152t13.5 -141.5q0 -35 -5 -86.5t-21.5 -139.5t-58.5 -188t-103 -182q-82 -111 -207 -185.5t-283 -74.5q-205 0 -352.5 156.5t-147.5 434.5zM299 539q0 -203 92 -301.5t217 -98.5 q141 0 252 108.5t165 269.5t54 337q0 25 -2 48.5t-9 76.5t-26.5 95t-50 86t-86 68.5t-127.5 24.5q-117 0 -213 -70.5t-151.5 -180t-85 -229.5t-29.5 -234zM463 1493l282 307h254l140 -307h-99l-166 174l-288 -174h-123z" />
<glyph unicode="&#xd5;" horiz-adv-x="1343" d="M102 573q0 197 78 386.5t238 322.5t360 133q115 0 205 -40t144.5 -101.5t90 -142t49 -152t13.5 -141.5q0 -35 -5 -86.5t-21.5 -139.5t-58.5 -188t-103 -182q-82 -111 -207 -185.5t-283 -74.5q-205 0 -352.5 156.5t-147.5 434.5zM299 539q0 -203 92 -301.5t217 -98.5 q141 0 252 108.5t165 269.5t54 337q0 25 -2 48.5t-9 76.5t-26.5 95t-50 86t-86 68.5t-127.5 24.5q-117 0 -213 -70.5t-151.5 -180t-85 -229.5t-29.5 -234zM465 1493q0 127 67.5 187.5t143.5 60.5q61 0 160 -49q8 -4 28.5 -15.5t32.5 -17.5t29.5 -11.5t31.5 -5.5q63 0 78 99 h107q0 -106 -54.5 -177t-150.5 -71q-74 0 -172 51q-88 47 -117 47q-37 0 -56.5 -31.5t-21.5 -66.5h-106z" />
<glyph unicode="&#xd6;" horiz-adv-x="1343" d="M102 573q0 197 78 386.5t238 322.5t360 133q115 0 205 -40t144.5 -101.5t90 -142t49 -152t13.5 -141.5q0 -35 -5 -86.5t-21.5 -139.5t-58.5 -188t-103 -182q-82 -111 -207 -185.5t-283 -74.5q-205 0 -352.5 156.5t-147.5 434.5zM299 539q0 -203 92 -301.5t217 -98.5 q141 0 252 108.5t165 269.5t54 337q0 25 -2 48.5t-9 76.5t-26.5 95t-50 86t-86 68.5t-127.5 24.5q-117 0 -213 -70.5t-151.5 -180t-85 -229.5t-29.5 -234zM492 1649q0 45 31.5 76.5t76.5 31.5t77 -31.5t32 -76.5q0 -41 -30 -75t-79 -34q-45 0 -76.5 32t-31.5 77zM913 1649 q0 45 32 76.5t77 31.5t76.5 -31.5t31.5 -76.5t-31.5 -77t-76.5 -32t-77 32t-32 77z" />
<glyph unicode="&#xd7;" horiz-adv-x="1193" d="M195 385l315 313l-315 314l120 123l316 -314l313 314l121 -123l-313 -314l313 -313l-121 -123l-313 316l-316 -316z" />
<glyph unicode="&#xd8;" horiz-adv-x="1343" d="M59 0l152 188q-41 55 -73 158t-32 221q0 141 45.5 286.5t127 272.5t217 208t295.5 81q209 0 337 -135l127 154l78 -93l-135 -159q82 -135 82 -361q0 -348 -193.5 -593.5t-476.5 -245.5q-184 0 -319 114l-154 -180zM303 547q0 -125 33 -211l682 805q-84 113 -227 112 q-121 0 -218.5 -70.5t-154 -180t-86 -228.5t-29.5 -227zM401 229q92 -92 211 -92q152 0 263.5 119t160.5 275.5t49 314.5q0 106 -20 176z" />
<glyph unicode="&#xd9;" horiz-adv-x="1300" d="M127 412q0 72 12 153l117 832h188l-127 -885q-6 -37 -6 -102q0 -100 77 -178t226 -78q113 0 194 48t120 120q39 68 69 262l115 813h191l-119 -832q-33 -229 -109 -348q-154 -236 -471 -235q-233 0 -355 125.5t-122 304.5zM442 1800h293l152 -307h-105z" />
<glyph unicode="&#xda;" horiz-adv-x="1300" d="M127 412q0 72 12 153l117 832h188l-127 -885q-6 -37 -6 -102q0 -100 77 -178t226 -78q113 0 194 48t120 120q39 68 69 262l115 813h191l-119 -832q-33 -229 -109 -348q-154 -236 -471 -235q-233 0 -355 125.5t-122 304.5zM690 1493l150 307h297l-340 -307h-107z" />
<glyph unicode="&#xdb;" horiz-adv-x="1300" d="M127 412q0 72 12 153l117 832h188l-127 -885q-6 -37 -6 -102q0 -100 77 -178t226 -78q113 0 194 48t120 120q39 68 69 262l115 813h191l-119 -832q-33 -229 -109 -348q-154 -236 -471 -235q-233 0 -355 125.5t-122 304.5zM420 1493l282 307h254l140 -307h-99l-166 174 l-288 -174h-123z" />
<glyph unicode="&#xdc;" horiz-adv-x="1300" d="M127 412q0 72 12 153l117 832h188l-127 -885q-6 -37 -6 -102q0 -100 77 -178t226 -78q113 0 194 48t120 120q39 68 69 262l115 813h191l-119 -832q-33 -229 -109 -348q-154 -236 -471 -235q-233 0 -355 125.5t-122 304.5zM469 1649q0 45 31.5 76.5t77 31.5t77 -31.5 t31.5 -76.5q0 -41 -29.5 -75t-78.5 -34q-45 0 -77 32t-32 77zM891 1649q0 45 31.5 76.5t76.5 31.5t77 -31.5t32 -76.5t-32 -77t-77 -32t-76.5 32t-31.5 77z" />
<glyph unicode="&#xdd;" horiz-adv-x="1003" d="M121 1397h194l240 -512l356 512h213l-487 -701l-100 -696h-187l101 696zM563 1493l150 307h297l-340 -307h-107z" />
<glyph unicode="&#xde;" horiz-adv-x="917" d="M68 0l194 1397h195l-39 -295h31q150 0 245 -37q90 -35 158 -119t68 -223q0 -131 -68 -239.5t-188 -153.5q-90 -35 -254 -35h-107l-41 -295h-194zM326 461q102 -6 173.5 2t121 38.5t70 75t28.5 79t8 67.5q0 57 -39 118.5t-127 84.5q-53 12 -168 12z" />
<glyph unicode="&#xdf;" horiz-adv-x="1024" d="M82 0l135 920q68 496 408 495q147 0 243.5 -92t96.5 -231q0 -111 -62.5 -193t-165.5 -111q102 -49 145.5 -142t43.5 -187q0 -199 -119 -343.5t-283 -144.5q-61 0 -108 29l18 131q39 -8 70 -8q123 0 185.5 104.5t62.5 245.5q0 246 -230 272l17 119q119 -12 194.5 52.5 t75.5 170.5q0 88 -54.5 140.5t-131.5 52.5q-111 0 -161 -90t-73 -250l-133 -940h-174z" />
<glyph unicode="&#xe0;" horiz-adv-x="960" d="M72 338q0 35 5 78t19.5 108.5t52 134t91.5 121.5q168 168 454 168q121 1 219 -28l-131 -920h-172l15 111q-123 -123 -252 -123q-137 0 -219 111.5t-82 238.5zM254 369q0 -106 51 -175t129 -69q63 0 122.5 50t90.5 95l76 527q-127 8 -221 -30t-140.5 -92t-73 -127 t-30.5 -112t-4 -67zM414 1346h207l139 -299h-115z" />
<glyph unicode="&#xe1;" horiz-adv-x="960" d="M72 338q0 35 5 78t19.5 108.5t52 134t91.5 121.5q168 168 454 168q121 1 219 -28l-131 -920h-172l15 111q-123 -123 -252 -123q-137 0 -219 111.5t-82 238.5zM254 369q0 -106 51 -175t129 -69q63 0 122.5 50t90.5 95l76 527q-127 8 -221 -30t-140.5 -92t-73 -127 t-30.5 -112t-4 -67zM500 1047l139 299h207l-232 -299h-114z" />
<glyph unicode="&#xe2;" horiz-adv-x="960" d="M72 338q0 35 5 78t19.5 108.5t52 134t91.5 121.5q168 168 454 168q121 1 219 -28l-131 -920h-172l15 111q-123 -123 -252 -123q-137 0 -219 111.5t-82 238.5zM254 369q0 -106 51 -175t129 -69q63 0 122.5 50t90.5 95l76 527q-127 8 -221 -30t-140.5 -92t-73 -127 t-30.5 -112t-4 -67zM309 1047l269 303h202l154 -303h-84l-170 202l-274 -202h-97z" />
<glyph unicode="&#xe3;" horiz-adv-x="960" d="M72 338q0 35 5 78t19.5 108.5t52 134t91.5 121.5q168 168 454 168q121 1 219 -28l-131 -920h-172l15 111q-123 -123 -252 -123q-137 0 -219 111.5t-82 238.5zM254 369q0 -106 51 -175t129 -69q63 0 122.5 50t90.5 95l76 527q-127 8 -221 -30t-140.5 -92t-73 -127 t-30.5 -112t-4 -67zM309 1104q4 78 17 115q20 55 61 86.5t82 31.5t190 -53q70 -25 101 -24q63 0 71 75h80q-6 -68 -14 -98q-18 -63 -60 -99t-94 -36q-31 0 -141 41q-84 37 -145 37q-20 0 -42 -18.5t-24 -57.5h-82z" />
<glyph unicode="&#xe4;" horiz-adv-x="960" d="M72 338q0 35 5 78t19.5 108.5t52 134t91.5 121.5q168 168 454 168q121 1 219 -28l-131 -920h-172l15 111q-123 -123 -252 -123q-137 0 -219 111.5t-82 238.5zM254 369q0 -106 51 -175t129 -69q63 0 122.5 50t90.5 95l76 527q-127 8 -221 -30t-140.5 -92t-73 -127 t-30.5 -112t-4 -67zM354 1200q0 39 28 66.5t66.5 27.5t66.5 -27.5t28 -66.5t-28 -66.5t-66.5 -27.5t-66.5 27.5t-28 66.5zM739 1200q0 39 28 66.5t66.5 27.5t66.5 -27.5t28 -66.5t-28 -66.5t-66.5 -27.5t-66.5 27.5t-28 66.5z" />
<glyph unicode="&#xe5;" horiz-adv-x="960" d="M72 338q0 35 5 78t19.5 108.5t52 134t91.5 121.5q168 168 454 168q121 1 219 -28l-131 -920h-172l15 111q-123 -123 -252 -123q-137 0 -219 111.5t-82 238.5zM254 369q0 -106 51 -175t129 -69q63 0 122.5 50t90.5 95l76 527q-127 8 -221 -30t-140.5 -92t-73 -127 t-30.5 -112t-4 -67zM451 1235q0 82 58 136t134 54q72 0 129 -53t57 -135q0 -80 -55 -135t-135 -55q-78 0 -133 54t-55 134zM524 1235q0 -49 34 -83t83 -34q47 0 81 34t34 81q0 49 -36 79.5t-83 30.5q-51 0 -82 -29.5t-31 -78.5z" />
<glyph unicode="&#xe6;" horiz-adv-x="1323" d="M25 184q0 72 40.5 130.5t93 93t135.5 63.5t129 40t114 24q16 61 16 124q0 74 -41 106t-88 32q-131 0 -301 -170l29 196q158 125 299 125q150 0 213 -125q55 59 132.5 92t145.5 33q143 0 227 -118.5t84 -307.5q0 -20 -6 -82h-547q-12 -49 -12 -102q0 -119 68.5 -170 t138.5 -51q141 0 309 127l-24 -178q-145 -94 -299 -95q-211 0 -314 174q-160 -174 -319 -174q-88 0 -155.5 58.5t-67.5 154.5zM209 203q0 -37 24.5 -60.5t63.5 -23.5q91 0 197 98l26 191q-119 -23 -215 -76t-96 -129zM717 561h373q6 102 -41.5 173t-130.5 71 q-106 0 -160 -98q-35 -68 -41 -146z" />
<glyph unicode="&#xe7;" horiz-adv-x="784" d="M66 377q0 258 171 414.5t412 156.5q96 1 170 -28l-26 -144q-78 12 -138 12q-109 0 -193.5 -39.5t-129.5 -102t-67.5 -126t-22.5 -123.5q0 -33 8 -71.5t30.5 -89t77 -83t131.5 -32.5q143 0 261 100l-23 -186q-55 -29 -104.5 -43.5t-79 -16.5t-84.5 -4l-15 -32 q68 -16 97.5 -59.5t29.5 -84.5q0 -98 -104 -151q-74 -37 -184 -37q-109 0 -177 22l29 92q74 -16 123 -16q68 0 97.5 25.5t29.5 56.5q0 53 -80 74l66 110q-127 29 -216 131.5t-89 274.5z" />
<glyph unicode="&#xe8;" horiz-adv-x="897" d="M78 408q0 225 122 382.5t308 157.5q145 0 239.5 -105.5t94.5 -275.5q0 -49 -8 -90h-576q-4 -66 -4 -90q0 -123 67.5 -197.5t157.5 -74.5q132 0 318 141l-27 -182q-143 -102 -305 -103q-176 0 -281.5 123t-105.5 314zM287 598h385q2 98 -44 153.5t-120 55.5 q-149 0 -221 -209zM332 1346h207l139 -299h-115z" />
<glyph unicode="&#xe9;" horiz-adv-x="897" d="M78 408q0 225 122 382.5t308 157.5q145 0 239.5 -105.5t94.5 -275.5q0 -49 -8 -90h-576q-4 -66 -4 -90q0 -123 67.5 -197.5t157.5 -74.5q132 0 318 141l-27 -182q-143 -102 -305 -103q-176 0 -281.5 123t-105.5 314zM287 598h385q2 98 -44 153.5t-120 55.5 q-149 0 -221 -209zM397 1047l140 299h206l-231 -299h-115z" />
<glyph unicode="&#xea;" horiz-adv-x="897" d="M78 408q0 225 122 382.5t308 157.5q145 0 239.5 -105.5t94.5 -275.5q0 -49 -8 -90h-576q-4 -66 -4 -90q0 -123 67.5 -197.5t157.5 -74.5q132 0 318 141l-27 -182q-143 -102 -305 -103q-176 0 -281.5 123t-105.5 314zM207 1047l268 303h203l153 -303h-83l-170 202 l-275 -202h-96zM287 598h385q2 98 -44 153.5t-120 55.5q-149 0 -221 -209z" />
<glyph unicode="&#xeb;" horiz-adv-x="897" d="M78 408q0 225 122 382.5t308 157.5q145 0 239.5 -105.5t94.5 -275.5q0 -49 -8 -90h-576q-4 -66 -4 -90q0 -123 67.5 -197.5t157.5 -74.5q132 0 318 141l-27 -182q-143 -102 -305 -103q-176 0 -281.5 123t-105.5 314zM252 1200q0 39 27.5 66.5t66.5 27.5t66.5 -27.5 t27.5 -66.5t-27.5 -66.5t-66.5 -27.5t-66.5 27.5t-27.5 66.5zM287 598h385q2 98 -44 153.5t-120 55.5q-149 0 -221 -209zM637 1200q0 39 27.5 66.5t66.5 27.5t66.5 -27.5t27.5 -66.5t-27.5 -66.5t-66.5 -27.5t-66.5 27.5t-27.5 66.5z" />
<glyph unicode="&#xec;" horiz-adv-x="385" d="M45 0l131 920h174l-131 -920h-174zM76 1346h207l139 -299h-115z" />
<glyph unicode="&#xed;" horiz-adv-x="385" d="M45 0l131 920h174l-131 -920h-174zM162 1047l139 299h207l-232 -299h-114z" />
<glyph unicode="&#xee;" horiz-adv-x="385" d="M-29 1047l269 303h202l154 -303h-84l-170 202l-274 -202h-97zM45 0l131 920h174l-131 -920h-174z" />
<glyph unicode="&#xef;" horiz-adv-x="385" d="M16 1200q0 39 28 66.5t67 27.5t66.5 -27.5t27.5 -66.5t-27.5 -66.5t-66.5 -27.5t-67 27.5t-28 66.5zM45 0l131 920h174l-131 -920h-174zM401 1200q0 39 28 66.5t67 27.5t66.5 -27.5t27.5 -66.5t-27.5 -66.5t-66.5 -27.5t-67 27.5t-28 66.5z" />
<glyph unicode="&#xf0;" horiz-adv-x="917" d="M74 383q0 264 137 414.5t309 150.5q68 0 146 -35q-16 80 -39 129.5t-74 102.5l-201 -127l-47 76l182 116q-70 51 -135 82l62 121q123 -41 207 -121l180 121l47 -76l-164 -106q186 -223 186 -569q0 -360 -141 -533q-131 -158 -319 -158q-143 0 -239.5 102.5t-96.5 309.5z M252 352q0 -129 54 -185t114 -56q119 0 191.5 141t72.5 311q0 109 -44 176.5t-116 67.5q-88 0 -152.5 -76t-92 -176t-27.5 -203z" />
<glyph unicode="&#xf1;" horiz-adv-x="960" d="M45 0l131 920h176l-24 -166q154 180 307 180q121 0 176 -86t55 -182q0 -41 -10 -113l-84 -553h-174l74 553q10 72 10 111q0 47 -27.5 87t-76.5 40q-53 0 -120 -49.5t-101.5 -89.5t-53.5 -66l-84 -586h-174zM289 1104q4 78 16 115q20 55 61.5 86.5t82 31.5t190.5 -53 q70 -25 100 -24q63 0 72 75h80q-6 -68 -14 -98q-18 -63 -60.5 -99t-93.5 -36q-31 0 -141 41q-84 37 -146 37q-20 0 -41.5 -18.5t-23.5 -57.5h-82z" />
<glyph unicode="&#xf2;" horiz-adv-x="917" d="M74 383q0 268 137 416.5t305 148.5q152 0 246 -109.5t94 -293.5q0 -272 -134 -423t-308 -151q-129 0 -224 84q-117 106 -116 328zM252 340q0 -119 53 -176.5t107 -57.5q84 0 147.5 74t91 173.5t27.5 201.5t-41 175t-123 73q-113 0 -187.5 -132t-74.5 -331zM342 1346h207 l139 -299h-115z" />
<glyph unicode="&#xf3;" horiz-adv-x="917" d="M74 383q0 268 137 416.5t305 148.5q152 0 246 -109.5t94 -293.5q0 -272 -134 -423t-308 -151q-129 0 -224 84q-117 106 -116 328zM252 340q0 -119 53 -176.5t107 -57.5q84 0 147.5 74t91 173.5t27.5 201.5t-41 175t-123 73q-113 0 -187.5 -132t-74.5 -331zM428 1047 l139 299h207l-231 -299h-115z" />
<glyph unicode="&#xf4;" horiz-adv-x="917" d="M74 383q0 268 137 416.5t305 148.5q152 0 246 -109.5t94 -293.5q0 -272 -134 -423t-308 -151q-129 0 -224 84q-117 106 -116 328zM238 1047l268 303h203l153 -303h-84l-170 202l-274 -202h-96zM252 340q0 -119 53 -176.5t107 -57.5q84 0 147.5 74t91 173.5t27.5 201.5 t-41 175t-123 73q-113 0 -187.5 -132t-74.5 -331z" />
<glyph unicode="&#xf5;" horiz-adv-x="917" d="M74 383q0 268 137 416.5t305 148.5q152 0 246 -109.5t94 -293.5q0 -272 -134 -423t-308 -151q-129 0 -224 84q-117 106 -116 328zM211 1104q4 78 16 115q20 55 61.5 86.5t82.5 31.5t190 -53q70 -25 101 -24q63 0 71 75h80q-6 -68 -14 -98q-18 -63 -60.5 -99t-93.5 -36 q-31 0 -141 41q-84 37 -146 37q-20 0 -41.5 -18.5t-23.5 -57.5h-82zM252 340q0 -119 53 -176.5t107 -57.5q84 0 147.5 74t91 173.5t27.5 201.5t-41 175t-123 73q-113 0 -187.5 -132t-74.5 -331z" />
<glyph unicode="&#xf6;" horiz-adv-x="917" d="M74 383q0 268 137 416.5t305 148.5q152 0 246 -109.5t94 -293.5q0 -272 -134 -423t-308 -151q-129 0 -224 84q-117 106 -116 328zM252 340q0 -119 53 -176.5t107 -57.5q84 0 147.5 74t91 173.5t27.5 201.5t-41 175t-123 73q-113 0 -187.5 -132t-74.5 -331zM283 1200 q0 39 27.5 66.5t66.5 27.5t66.5 -27.5t27.5 -66.5t-27.5 -66.5t-66.5 -27.5t-66.5 27.5t-27.5 66.5zM668 1200q0 39 27.5 66.5t66.5 27.5t66.5 -27.5t27.5 -66.5t-27.5 -66.5t-66.5 -27.5t-66.5 27.5t-27.5 66.5z" />
<glyph unicode="&#xf7;" horiz-adv-x="1196" d="M145 614v168h969v-168h-969zM520 399q0 45 32 77t77 32t77.5 -32t32.5 -77t-32.5 -76.5t-77.5 -31.5t-77 31.5t-32 76.5zM520 997q0 45 32 77t77 32q47 0 78.5 -32t31.5 -77t-32.5 -76.5t-77.5 -31.5t-77 31.5t-32 76.5z" />
<glyph unicode="&#xf8;" horiz-adv-x="917" d="M37 35l86 104q-51 98 -51 242q0 258 135 412.5t305 154.5q109 0 186 -53q14 -14 47 -39l76 88l60 -65l-82 -97q55 -96 55 -250q0 -250 -130 -405.5t-316 -155.5q-117 0 -230 88l-80 -92zM250 350q0 -26 4 -63l383 444q-41 74 -121 74q-90 0 -153.5 -81t-88 -179.5 t-24.5 -194.5zM287 186q57 -78 129 -77q117 0 189.5 140t72.5 312q0 41 -6 72z" />
<glyph unicode="&#xf9;" horiz-adv-x="960" d="M80 233q0 43 18 168l74 519h174l-78 -562q-12 -74 -12 -108q0 -55 25.5 -87t44 -36t32.5 -4q84 0 179 94q70 70 98 105l84 598h174l-131 -920h-174l22 158q-168 -168 -307 -168q-98 0 -160.5 65.5t-62.5 177.5zM362 1346h207l140 -299h-115z" />
<glyph unicode="&#xfa;" horiz-adv-x="960" d="M80 233q0 43 18 168l74 519h174l-78 -562q-12 -74 -12 -108q0 -55 25.5 -87t44 -36t32.5 -4q84 0 179 94q70 70 98 105l84 598h174l-131 -920h-174l22 158q-168 -168 -307 -168q-98 0 -160.5 65.5t-62.5 177.5zM449 1047l139 299h207l-232 -299h-114z" />
<glyph unicode="&#xfb;" horiz-adv-x="960" d="M80 233q0 43 18 168l74 519h174l-78 -562q-12 -74 -12 -108q0 -55 25.5 -87t44 -36t32.5 -4q84 0 179 94q70 70 98 105l84 598h174l-131 -920h-174l22 158q-168 -168 -307 -168q-98 0 -160.5 65.5t-62.5 177.5zM227 1047l269 303h202l154 -303h-84l-170 202l-274 -202 h-97z" />
<glyph unicode="&#xfc;" horiz-adv-x="960" d="M80 233q0 43 18 168l74 519h174l-78 -562q-12 -74 -12 -108q0 -55 25.5 -87t44 -36t32.5 -4q84 0 179 94q70 70 98 105l84 598h174l-131 -920h-174l22 158q-168 -168 -307 -168q-98 0 -160.5 65.5t-62.5 177.5zM303 1200q0 39 27.5 66.5t66.5 27.5t67 -27.5t28 -66.5 t-28 -66.5t-67 -27.5t-66.5 27.5t-27.5 66.5zM688 1200q0 39 27.5 66.5t66.5 27.5t67 -27.5t28 -66.5t-28 -66.5t-67 -27.5t-66.5 27.5t-27.5 66.5z" />
<glyph unicode="&#xfd;" horiz-adv-x="768" d="M-25 -471l250 526l-174 865h174l121 -615l291 615h182l-661 -1391h-183zM352 1047l140 299h206l-231 -299h-115z" />
<glyph unicode="&#xfe;" horiz-adv-x="1003" d="M25 -453l266 1850h170l-68 -477q57 18 99 24q27 4 63 4q123 0 211 -71.5t126 -168t38 -196.5q0 -170 -98.5 -310.5t-249.5 -195.5q-106 -37 -326 -33l-63 -426h-168zM279 119q25 -4 61 -4q111 0 194.5 39t129 102t67 129t21.5 131q0 137 -79 219t-184 82q-44 1 -114 -26z " />
<glyph unicode="&#xff;" horiz-adv-x="768" d="M-25 -471l250 526l-174 865h174l121 -615l291 615h182l-661 -1391h-183zM207 1200q0 39 27.5 66.5t66.5 27.5t66.5 -27.5t27.5 -66.5t-27.5 -66.5t-66.5 -27.5t-66.5 27.5t-27.5 66.5zM592 1200q0 39 27.5 66.5t66.5 27.5t66.5 -27.5t27.5 -66.5t-27.5 -66.5t-66.5 -27.5 t-66.5 27.5t-27.5 66.5z" />
<glyph unicode="&#x152;" horiz-adv-x="1984" d="M104 604q0 90 23 186.5t75 196.5t126.5 183t189.5 143.5t252 77.5q63 8 238 8q29 -2 155 -2h746l-25 -172h-557l-61 -428h524l-25 -168h-524l-65 -463h749l-22 -166h-924q-49 -4 -78 -4q-31 -2 -131 -2q-90 0 -143.5 4t-140.5 30.5t-158 80.5q-121 90 -172.5 228 t-51.5 267zM305 594q0 -283 184 -383q57 -31 113.5 -38t173.5 -7h211l152 1059h-107q-12 0 -86 3t-88 3q-137 0 -246 -47q-150 -66 -228.5 -228.5t-78.5 -361.5z" />
<glyph unicode="&#x153;" horiz-adv-x="1472" d="M55 383q0 242 130 403.5t307 161.5q127 0 219 -86q33 -33 57 -78q131 164 299 164q129 0 226.5 -93t97.5 -290v-84h-574q-10 -61 -10 -96q0 -106 43 -172q68 -98 203 -98q156 0 293 137l-25 -193q-135 -88 -274 -88q-221 0 -347 191q-41 -51 -73.5 -84t-100 -70 t-141.5 -37q-20 0 -46 3t-81 26t-96 61.5t-74 122.5t-33 199zM227 348q0 -113 51.5 -172t110.5 -59q111 0 180.5 133t69.5 323q0 66 -15.5 112t-35 68.5t-46 35t-38.5 13.5t-25 1q-68 0 -121 -52.5t-79.5 -130t-39 -147.5t-12.5 -125zM836 600h385q-2 115 -54.5 163 t-111.5 48q-113 0 -176 -100q-29 -45 -43 -111z" />
<glyph unicode="&#x178;" horiz-adv-x="1003" d="M121 1397h194l240 -512l356 512h213l-487 -701l-100 -696h-187l101 696zM285 1649q0 45 31.5 76.5t76.5 31.5t77 -31.5t32 -76.5q0 -41 -30 -75t-79 -34q-45 0 -76.5 32t-31.5 77zM707 1649q0 45 31.5 76.5t76.5 31.5t77 -31.5t32 -76.5t-32 -77t-77 -32t-76.5 32 t-31.5 77z" />
<glyph unicode="&#x2c6;" horiz-adv-x="681" d="M119 1047l268 303h203l153 -303h-84l-170 202l-274 -202h-96z" />
<glyph unicode="&#x2dc;" horiz-adv-x="681" d="M150 1104q4 78 16 115q20 55 61 86.5t82 31.5t191 -53q70 -25 100 -24q63 0 72 75h80q-6 -68 -15 -98q-18 -63 -60 -99t-93 -36q-31 0 -142 41q-84 37 -145 37q-20 0 -42 -18.5t-24 -57.5h-81z" />
<glyph unicode="&#x2000;" horiz-adv-x="953" />
<glyph unicode="&#x2001;" horiz-adv-x="1907" />
<glyph unicode="&#x2002;" horiz-adv-x="953" />
<glyph unicode="&#x2003;" horiz-adv-x="1907" />
<glyph unicode="&#x2004;" horiz-adv-x="635" />
<glyph unicode="&#x2005;" horiz-adv-x="476" />
<glyph unicode="&#x2006;" horiz-adv-x="317" />
<glyph unicode="&#x2007;" horiz-adv-x="317" />
<glyph unicode="&#x2008;" horiz-adv-x="238" />
<glyph unicode="&#x2009;" horiz-adv-x="381" />
<glyph unicode="&#x200a;" horiz-adv-x="105" />
<glyph unicode="&#x2010;" horiz-adv-x="512" d="M0 369l25 174h487l-25 -174h-487z" />
<glyph unicode="&#x2011;" horiz-adv-x="512" d="M0 369l25 174h487l-25 -174h-487z" />
<glyph unicode="&#x2012;" horiz-adv-x="512" d="M0 369l25 174h487l-25 -174h-487z" />
<glyph unicode="&#x2013;" horiz-adv-x="1024" d="M-18 449v129h1060v-129h-1060z" />
<glyph unicode="&#x2014;" horiz-adv-x="2048" d="M-18 453v131h2084v-131h-2084z" />
<glyph unicode="&#x2018;" horiz-adv-x="405" d="M158 1081q0 100 79.5 196.5t247.5 133.5l-14 -90q-127 -41 -135 -176q82 -31 82 -107q0 -53 -38 -85.5t-87 -32.5q-59 0 -97 46t-38 115z" />
<glyph unicode="&#x2019;" horiz-adv-x="405" d="M123 920l12 92q135 45 135 174q-82 37 -82 108q0 55 38 88t87 33q59 0 97.5 -46t38.5 -116q0 -102 -81 -200t-245 -133z" />
<glyph unicode="&#x201a;" horiz-adv-x="405" d="M-49 -299l12 90q135 43 135 176q-80 33 -80 109q0 55 38 88t87 33q59 0 96 -46.5t37 -115.5q0 -104 -80.5 -201.5t-244.5 -132.5z" />
<glyph unicode="&#x201c;" horiz-adv-x="831" d="M131 1085q0 100 80 196.5t248 133.5l-13 -90q-129 -41 -137 -176q82 -31 82 -107q0 -53 -38 -85.5t-87 -32.5q-59 0 -97 46t-38 115zM571 1085q0 100 80 196.5t248 133.5l-14 -90q-127 -41 -135 -176q82 -31 81 -107q0 -53 -37.5 -85.5t-86.5 -32.5q-59 0 -97.5 46 t-38.5 115z" />
<glyph unicode="&#x201d;" horiz-adv-x="831" d="M127 920l12 92q135 45 135 174q-82 37 -81 108q0 55 37.5 88t86.5 33q59 0 97.5 -46t38.5 -116q0 -102 -81 -200t-245 -133zM567 920l13 92q135 45 135 174q-82 37 -82 108q0 55 38 88t87 33q61 0 98 -46t37 -116q0 -104 -81 -201t-245 -132z" />
<glyph unicode="&#x201e;" horiz-adv-x="831" d="M-51 -295l14 90q135 45 135 176q-82 35 -82 107q0 55 39 87t86 32q61 0 98 -46.5t37 -113.5q0 -100 -79.5 -197.5t-247.5 -134.5zM389 -295l14 90q135 45 136 176q-82 35 -82 107q0 55 39 87t86 32q59 0 97 -46.5t38 -113.5q0 -100 -80 -197.5t-248 -134.5z" />
<glyph unicode="&#x2022;" horiz-adv-x="724" d="M135 698q0 106 74 180t178 74q106 0 180 -74.5t74 -179.5q0 -106 -74.5 -180t-179 -74t-178.5 75t-74 179z" />
<glyph unicode="&#x2026;" horiz-adv-x="2048" d="M217 96q0 51 36 88t87 37q53 0 89 -37t36 -88t-37 -88t-88 -37t-87 37t-36 88zM899 98q0 53 36 89t89 36q51 0 88 -35.5t37 -89.5q0 -51 -37 -88t-88 -37t-88 37t-37 88zM1583 100.5q0 51.5 36 88t89 36.5q51 0 87 -36.5t36 -88t-36 -88.5t-87 -37q-53 0 -89 37t-36 88.5 z" />
<glyph unicode="&#x202f;" horiz-adv-x="381" />
<glyph unicode="&#x2039;" horiz-adv-x="468" d="M20 459l345 461h159l-356 -482l172 -438h-137z" />
<glyph unicode="&#x203a;" horiz-adv-x="468" d="M-55 0l352 475l-174 445h139l182 -463l-338 -457h-161z" />
<glyph unicode="&#x205f;" horiz-adv-x="476" />
<glyph unicode="&#x20ac;" horiz-adv-x="1177" d="M51 498l29 147h121q4 55 14 109h-164l29 147h178q68 180 200 300t273 167t295 47q86 0 209 -20l-33 -178q-106 20 -190 20q-180 0 -327.5 -84t-225.5 -252h577l-28 -147h-598q-12 -76 -17 -109h594l-29 -147h-565q2 -41 11.5 -81t35 -107.5t87 -109.5t151.5 -42 q180 0 391 135l-27 -215q-207 -96 -378 -96q-49 0 -99.5 10t-114 43t-112.5 86t-88 151.5t-49 225.5h-150z" />
<glyph unicode="&#x2122;" horiz-adv-x="2048" d="M268 1276v121h666v-121h-266v-692h-136v692h-264zM1026 584v813h199l207 -652l198 652h197v-813h-125v682l-211 -682h-121l-221 692v-692h-123z" />
<glyph unicode="&#x25fc;" horiz-adv-x="921" d="M0 0v922h922v-922h-922z" />
<glyph unicode="&#xfb01;" horiz-adv-x="980" d="M53 -387l170 1157h-135l23 150h133q16 100 27.5 151t41 116.5t74.5 119.5q94 109 266 108q20 0 46 -2t76 -17.5t89 -40t69 -76.5t30 -124h-170q-8 47 -42 74.5t-57.5 32t-44.5 4.5q-51 0 -91 -21.5t-61.5 -48.5t-39 -81t-24.5 -90t-17 -105h196l-24 -150h-193l-172 -1157 h-170zM618 0l138 920h170l-133 -920h-175z" />
<glyph unicode="&#xfb02;" horiz-adv-x="980" d="M53 -387l170 1155h-133l23 152h131q8 49 13 80.5t20.5 89t33 96.5t48 86t68.5 75.5t94.5 48t123.5 19.5q59 0 105 -18l-21 -142q-51 10 -76 11q-117 0 -167 -90.5t-68 -255.5h200l-28 -152h-191l-176 -1155h-170zM618 0l207 1397h176l-208 -1397h-175z" />
<glyph unicode="&#xfb03;" horiz-adv-x="1492" d="M63 -387l170 1153h-149l22 154h150q18 102 27.5 150t31 103.5t52.5 98.5q106 143 272 143q162 0 276 -90q111 90 248 90q43 0 91.5 -11t102.5 -38t88 -82t34 -131h-170q-29 109 -150 109q-195 0 -225 -342h194l-22 -154h-191l-176 -1153h-170l170 1153h-336l-170 -1153 h-170zM428 920h332q18 174 76 282q-98 63 -179 64q-117 0 -178 -125q-31 -65 -51 -221zM1128 0l144 920h172l-137 -920h-179z" />
<glyph unicode="&#xfb04;" horiz-adv-x="1492" d="M59 -387l170 1153h-151l24 154h150q23 180 80 297q43 88 129 143t184 55q150 0 279 -90q94 90 233 90q61 0 105 -18l-23 -144q-37 8 -70 9q-125 0 -175 -87.5t-70 -254.5h206l-28 -154h-195l-170 -1153h-172l172 1153h-336l-172 -1153h-170zM426 920h330q27 172 73 282 q-90 61 -182 62q-49 0 -97 -33t-73 -90q-31 -74 -51 -221zM1130 0l207 1397h172l-206 -1397h-173z" />
</font>
</defs>
</svg>
